<?xml version="1.0" standalone="no"?>
<!DOCTYPE svg PUBLIC "-//W3C//DTD SVG 20010904//EN"
 "http://www.w3.org/TR/2001/REC-SVG-20010904/DTD/svg10.dtd">
<svg version="1.0" xmlns="http://www.w3.org/2000/svg"
 width="700.000000pt" height="700.000000pt" viewBox="0 0 700.000000 700.000000"
 preserveAspectRatio="xMidYMid meet">
<metadata>
Created by potrace 1.11, written by Peter Selinger 2001-2013
</metadata>
<g transform="translate(0.000000,700.000000) scale(0.100000,-0.100000)"
fill="#000000" stroke="none">
<path d="M4188 5646 c-1 -2 -48 -7 -103 -10 -55 -4 -109 -9 -120 -11 -11 -3
-36 -7 -55 -9 -52 -8 -180 -34 -225 -46 -52 -14 -224 -69 -250 -80 -11 -4 -56
-22 -100 -40 -218 -87 -559 -293 -754 -455 -233 -194 -469 -444 -624 -661
l-37 -51 -68 -2 c-37 -1 -78 -3 -92 -5 -14 -3 -47 -7 -75 -11 -27 -3 -57 -8
-65 -10 -8 -2 -31 -6 -50 -9 -161 -25 -441 -141 -590 -245 -272 -190 -494
-472 -605 -766 l-24 -65 132 -1 c73 0 146 -2 162 -3 318 -28 529 -96 677 -218
91 -76 105 -104 112 -228 5 -86 25 -226 40 -275 2 -5 6 -23 10 -40 28 -114
110 -289 189 -404 216 -312 642 -541 1057 -567 113 -7 144 -23 219 -114 94
-113 163 -289 195 -500 22 -142 24 -173 25 -332 l1 -138 53 21 c371 144 666
400 859 744 99 177 176 437 194 650 3 39 7 86 9 105 2 19 4 40 4 45 1 6 18 21
39 35 20 14 80 60 134 102 465 372 832 863 1021 1363 39 104 81 238 92 293 2
9 10 44 18 77 30 115 50 294 49 430 0 185 -24 331 -79 495 -67 199 -162 358
-313 521 -32 35 -138 123 -193 161 -140 95 -348 184 -502 214 -105 20 -144 25
-235 30 -58 3 -110 7 -117 9 -6 2 -13 2 -15 1z m236 -475 c423 -75 703 -373
755 -806 9 -76 7 -275 -3 -340 -61 -381 -207 -712 -465 -1060 -41 -55 -77
-102 -80 -105 -3 -3 -35 -39 -71 -80 -326 -376 -785 -685 -1210 -813 -47 -14
-96 -28 -110 -31 -14 -3 -36 -8 -50 -11 -253 -59 -527 -47 -736 34 -361 139
-568 470 -566 906 0 110 4 145 23 260 18 106 68 289 99 360 5 11 27 64 51 118
117 273 324 570 569 816 145 146 154 154 275 251 348 276 791 473 1140 507 33
3 62 7 64 9 8 7 256 -5 315 -15z"/>
</g>
</svg>
