<svg xmlns="http://www.w3.org/2000/svg" viewBox="0 0 170 56.65"><defs><style>.cls-1{fill:#023e5a;}.cls-2{fill:#fff;}.cls-3{fill:#f44321;}</style></defs><title>mijn.host logo</title><g id="Laag_2" data-name="Laag 2"><g id="Content"><path class="cls-1" d="M92.05,35.4A21.13,21.13,0,0,0,67.2,14.49a28.33,28.33,0,0,0-52.2,7,17.69,17.69,0,0,0,2.7,35.18H71.51v0A21.23,21.23,0,0,0,92.05,35.4Z"/><path class="cls-2" d="M15.33,44.9V28h3.13a1.41,1.41,0,0,1,.79.21,1.14,1.14,0,0,1,.45.64l.27.91c.29-.29.58-.56.88-.81a6.38,6.38,0,0,1,1-.63A5.72,5.72,0,0,1,23,27.9a5.61,5.61,0,0,1,1.34-.15,3.92,3.92,0,0,1,2.53.79,5,5,0,0,1,1.53,2.11,4.93,4.93,0,0,1,1-1.34,5.38,5.38,0,0,1,1.32-.89,6.32,6.32,0,0,1,1.5-.51,7.61,7.61,0,0,1,1.57-.16,7.07,7.07,0,0,1,2.57.43,5,5,0,0,1,1.88,1.25,5.42,5.42,0,0,1,1.15,2,8.8,8.8,0,0,1,.39,2.72V44.9h-5V34.17c0-1.75-.74-2.63-2.24-2.63a2.3,2.3,0,0,0-1.7.68,2.6,2.6,0,0,0-.68,2V44.9H25.07V34.17a2.89,2.89,0,0,0-.57-2,2.24,2.24,0,0,0-1.68-.59,2.92,2.92,0,0,0-1.29.31,5,5,0,0,0-1.15.83V44.9Z"/><path class="cls-2" d="M49.5,23.38a2.6,2.6,0,0,1-.25,1.14,2.88,2.88,0,0,1-.66.92,3.31,3.31,0,0,1-1,.64,3,3,0,0,1-1.2.24,2.79,2.79,0,0,1-1.15-.24,3.12,3.12,0,0,1-1-.64,2.73,2.73,0,0,1-.89-2.06,3,3,0,0,1,.23-1.15,3.12,3.12,0,0,1,.66-.95,2.92,2.92,0,0,1,1-.63,3,3,0,0,1,1.15-.23,3.17,3.17,0,0,1,1.2.23,3,3,0,0,1,1.65,1.58A2.65,2.65,0,0,1,49.5,23.38ZM48.91,28V44.9h-5V28Z"/><path class="cls-2" d="M58.52,28V44.93a8.14,8.14,0,0,1-.3,2.24,4.55,4.55,0,0,1-2.82,3.09,7.62,7.62,0,0,1-2.81.45,8.36,8.36,0,0,1-1.15-.07,9.57,9.57,0,0,1-1.09-.22l.16-2.66a.72.72,0,0,1,.23-.5,1.29,1.29,0,0,1,.78-.16,4.16,4.16,0,0,0,1-.1,1.18,1.18,0,0,0,.59-.34,1.45,1.45,0,0,0,.31-.66,5.27,5.27,0,0,0,.09-1.07V28Zm.59-4.63a2.6,2.6,0,0,1-.25,1.14,2.76,2.76,0,0,1-.67.92,3.26,3.26,0,0,1-1,.64,3,3,0,0,1-1.2.24,2.75,2.75,0,0,1-1.15-.24,3.29,3.29,0,0,1-1-.64,3,3,0,0,1-.65-.92A2.73,2.73,0,0,1,53,23.38a2.78,2.78,0,0,1,.23-1.15,3.27,3.27,0,0,1,.65-.95,3.07,3.07,0,0,1,1-.63A2.91,2.91,0,0,1,56,20.42a3.2,3.2,0,0,1,1.2.23,3.05,3.05,0,0,1,1,.63,3,3,0,0,1,.67.95A2.65,2.65,0,0,1,59.11,23.38Z"/><path class="cls-2" d="M62.85,44.9V28H66a1.41,1.41,0,0,1,.79.21,1.14,1.14,0,0,1,.45.64l.29,1c.33-.3.66-.58,1-.84a6.25,6.25,0,0,1,1.11-.66,7.23,7.23,0,0,1,1.29-.43,7.09,7.09,0,0,1,1.51-.15,5.92,5.92,0,0,1,2.45.48,5.09,5.09,0,0,1,1.8,1.33,5.75,5.75,0,0,1,1.11,2,8.77,8.77,0,0,1,.37,2.57V44.9h-5V34.17a2.94,2.94,0,0,0-.57-1.93,2,2,0,0,0-1.68-.7,3.5,3.5,0,0,0-1.56.36,6.24,6.24,0,0,0-1.4,1v12Z"/><path class="cls-1" d="M106.26,44.84V20.46h5v9a8.3,8.3,0,0,1,2-1.26,6.17,6.17,0,0,1,2.55-.48,5.92,5.92,0,0,1,2.45.48,5.09,5.09,0,0,1,1.8,1.33,5.89,5.89,0,0,1,1.1,2,8.38,8.38,0,0,1,.38,2.56V44.84h-5V34.11a3,3,0,0,0-.57-1.93,2.05,2.05,0,0,0-1.68-.69,3.5,3.5,0,0,0-1.56.36,6,6,0,0,0-1.4,1v12Z"/><path class="cls-1" d="M133,27.7a9.78,9.78,0,0,1,3.5.6A7.52,7.52,0,0,1,141,32.75a9.8,9.8,0,0,1,.63,3.61A10,10,0,0,1,141,40a7.74,7.74,0,0,1-1.76,2.75,7.52,7.52,0,0,1-2.71,1.74,9.56,9.56,0,0,1-3.5.61,9.73,9.73,0,0,1-3.53-.61A7.65,7.65,0,0,1,125,40a10.18,10.18,0,0,1-.62-3.64,10,10,0,0,1,.62-3.61A7.65,7.65,0,0,1,126.74,30a7.93,7.93,0,0,1,2.73-1.72A9.94,9.94,0,0,1,133,27.7Zm0,13.66a2.88,2.88,0,0,0,2.57-1.23,6.89,6.89,0,0,0,.82-3.74,6.85,6.85,0,0,0-.82-3.73A2.9,2.9,0,0,0,133,31.44a3,3,0,0,0-2.62,1.22,6.76,6.76,0,0,0-.83,3.73,6.79,6.79,0,0,0,.83,3.74A2.93,2.93,0,0,0,133,41.36Z"/><path class="cls-1" d="M155,31.65a1.19,1.19,0,0,1-.42.44,1,1,0,0,1-.56.13,1.86,1.86,0,0,1-.72-.15l-.77-.34a7.86,7.86,0,0,0-.94-.33,4.23,4.23,0,0,0-1.18-.15,2.55,2.55,0,0,0-1.48.36,1.2,1.2,0,0,0-.51,1,1,1,0,0,0,.33.78,3,3,0,0,0,.89.55c.37.15.79.3,1.25.45s1,.29,1.44.47a11.17,11.17,0,0,1,1.43.61,5.24,5.24,0,0,1,1.25.86,3.79,3.79,0,0,1,.89,1.25,4.25,4.25,0,0,1,.34,1.76,5.88,5.88,0,0,1-.46,2.31,4.93,4.93,0,0,1-1.36,1.82,6.41,6.41,0,0,1-2.23,1.19,10.15,10.15,0,0,1-3.06.42,9.1,9.1,0,0,1-1.72-.16,11.37,11.37,0,0,1-1.67-.44,8.09,8.09,0,0,1-1.49-.66A6,6,0,0,1,143.1,43l1.17-1.86a1.87,1.87,0,0,1,.5-.51,1.46,1.46,0,0,1,.77-.19,1.6,1.6,0,0,1,.79.2l.76.42a6.54,6.54,0,0,0,.95.43,4.14,4.14,0,0,0,1.38.19,3.53,3.53,0,0,0,1-.12,1.6,1.6,0,0,0,.65-.34,1.35,1.35,0,0,0,.36-.47,1.4,1.4,0,0,0,.11-.53,1.11,1.11,0,0,0-.34-.84,3.23,3.23,0,0,0-.9-.56A13,13,0,0,0,149,38.4c-.47-.13-.95-.29-1.44-.46a10.14,10.14,0,0,1-1.44-.63,4.78,4.78,0,0,1-1.26-.93A4.29,4.29,0,0,1,144,35a5.52,5.52,0,0,1,.08-4,4.75,4.75,0,0,1,1.24-1.7,6,6,0,0,1,2.09-1.16,8.91,8.91,0,0,1,2.93-.43,9.29,9.29,0,0,1,1.76.16,9.73,9.73,0,0,1,1.61.45,8,8,0,0,1,1.37.7,6.31,6.31,0,0,1,1.09.87Z"/><path class="cls-1" d="M165.28,45.1a5.84,5.84,0,0,1-2.13-.35,4.21,4.21,0,0,1-1.55-1,4.44,4.44,0,0,1-.95-1.55,6,6,0,0,1-.32-2V31.44h-1.44a.92.92,0,0,1-.66-.25.94.94,0,0,1-.28-.74v-2l2.69-.52,1-4.12a1,1,0,0,1,1.11-.79h2.63V28h4.11v3.45h-4.11v8.39a1.6,1.6,0,0,0,.29,1,1,1,0,0,0,.82.38,1.58,1.58,0,0,0,.47-.06,1.93,1.93,0,0,0,.32-.13l.26-.13a.65.65,0,0,1,.29,0,.57.57,0,0,1,.36.1,1.22,1.22,0,0,1,.29.33l1.53,2.4a7,7,0,0,1-2.2,1.1A8.82,8.82,0,0,1,165.28,45.1Z"/><rect class="cls-3" x="94.88" y="37.53" width="7.08" height="7.08" rx="3.54" ry="3.54"/></g></g></svg>