<?xml version="1.0" encoding="utf-8"?>
<!-- Generator: Adobe Illustrator 27.9.0, SVG Export Plug-In . SVG Version: 6.00 Build 0)  -->
<svg version="1.1" id="Laag_1" xmlns="http://www.w3.org/2000/svg" xmlns:xlink="http://www.w3.org/1999/xlink" x="0px" y="0px"
	 viewBox="0 0 841.89 595.28" style="enable-background:new 0 0 841.89 595.28;" xml:space="preserve">
<style type="text/css">
	.st0{fill:#010202;}
	.st1{fill:#EFDA5A;}
	.st2{fill:url(#SVGID_1_);}
	.st3{fill:url(#SVGID_00000139985481393955003880000002508107695925471650_);}
	.st4{fill:url(#SVGID_00000183221003413707103370000013614509166239133364_);}
	.st5{fill:url(#SVGID_00000160165589259881080320000016103934361771538092_);}
	.st6{fill:#DEC856;}
	.st7{fill:url(#SVGID_00000141431729898922474700000016862539714888497579_);}
	.st8{fill:url(#SVGID_00000017489162872742256630000009057583405070977947_);}
	.st9{fill:url(#SVGID_00000116945800147230429090000017287012552547563670_);}
	.st10{fill:url(#SVGID_00000102543144465575927440000009014427269239127692_);}
	.st11{fill:url(#SVGID_00000174576854653393213500000009031724921485586329_);}
	.st12{fill:url(#SVGID_00000084510460524056195790000011275385714864168091_);}
	.st13{fill:url(#SVGID_00000053532518086681670380000002482396704609031342_);}
	.st14{fill:url(#SVGID_00000179626076420490348340000017935701789953709963_);}
	.st15{fill:url(#SVGID_00000104672618677202437070000014641852925293885116_);}
	.st16{fill:url(#SVGID_00000018235434647039655830000011002923674742261930_);}
	.st17{fill:url(#SVGID_00000134928302449541060180000005896927746547943553_);}
	.st18{fill:url(#SVGID_00000173840335184640686290000016707972708437914027_);}
	.st19{fill:url(#SVGID_00000171695751197264596760000005336026658707682210_);}
	.st20{fill:url(#SVGID_00000010270132993488151630000004426700605376428960_);}
	.st21{fill:url(#SVGID_00000075877439776730375290000006213580748887065502_);}
	.st22{fill:url(#SVGID_00000126321441359653315500000000470004575520488096_);}
	.st23{fill:url(#SVGID_00000047749195959070873650000004689161471071934876_);}
	.st24{fill:url(#SVGID_00000090974085105811178280000015431631971876702080_);}
	.st25{fill:url(#SVGID_00000010996452625407745290000011402251413986327727_);}
	.st26{fill:url(#SVGID_00000021080366240465798590000018228188969849061304_);}
	.st27{fill:url(#SVGID_00000176016312302822613340000013163222507209358466_);}
	.st28{fill:url(#SVGID_00000183952695758350963110000004148151364259840663_);}
	.st29{fill:url(#SVGID_00000078029742384573203270000017986852502372864914_);}
	.st30{fill:url(#SVGID_00000064324693093963367530000008163677663745595575_);}
	.st31{fill:url(#SVGID_00000019646261511129645640000000686092130705695894_);}
	.st32{fill:url(#SVGID_00000148635050153892187340000008638200828657866153_);}
	.st33{fill:url(#SVGID_00000042695832684052590690000017960574155731729329_);}
	.st34{fill:url(#SVGID_00000112616569235367591790000008543487929183317688_);}
	.st35{fill:url(#SVGID_00000149340622539045095500000004447060682598373035_);}
	.st36{fill:url(#SVGID_00000029025376947266864750000017378122204403101874_);}
	.st37{fill:url(#SVGID_00000004505667740329113130000011775975283475356839_);}
	.st38{fill:url(#SVGID_00000039115686553861524820000002421338338895582886_);}
	.st39{fill:url(#SVGID_00000044883121517873125370000001011694853172184971_);}
	.st40{fill:url(#SVGID_00000040552285397876621850000015462725999605431687_);}
	.st41{fill:url(#SVGID_00000170264422556182291820000007221634760563557551_);}
	.st42{fill:url(#SVGID_00000142136112849479672740000007336454815831109522_);}
	.st43{fill:url(#SVGID_00000160874395192189974180000008262860566856244865_);}
	.st44{fill:url(#SVGID_00000158748750971141850960000003684368531559993745_);}
	.st45{fill:url(#SVGID_00000077295199617686875570000002447786152611281792_);}
	.st46{fill:url(#SVGID_00000124157920940765527420000015793028861797897102_);}
	.st47{fill:#CAC9C9;}
</style>
<path class="st1" d="M1724.99,584.2c0.25-0.98,0.75-1.39,1.71-0.75C1726.45,584.42,1725.64,584.12,1724.99,584.2z"/>
<g>
	<g>
		<linearGradient id="SVGID_1_" gradientUnits="userSpaceOnUse" x1="698.4486" y1="162.5687" x2="695.9007" y2="162.5687">
			<stop  offset="0.0647" style="stop-color:#FAEE73"/>
			<stop  offset="0.4098" style="stop-color:#927415"/>
			<stop  offset="0.6455" style="stop-color:#624D16"/>
		</linearGradient>
		<path class="st2" d="M696.34,164.49c0.65,0.33,1.15-0.08,1.24-0.81c1.13-1.33,1.12-2.37,0.14-3.16l-1.83,3.74
			C696.05,164.34,696.2,164.42,696.34,164.49z"/>
		
			<linearGradient id="SVGID_00000060017852650654201590000006367939577942360741_" gradientUnits="userSpaceOnUse" x1="709.5978" y1="236.1217" x2="74.9831" y2="236.1217">
			<stop  offset="0.0647" style="stop-color:#FAEE73"/>
			<stop  offset="0.4098" style="stop-color:#927415"/>
			<stop  offset="0.6455" style="stop-color:#624D16"/>
		</linearGradient>
		<path style="fill:url(#SVGID_00000060017852650654201590000006367939577942360741_);" d="M486.98,218.26
			c1.22,0.84,2.67,0.81,4.07,0.94c0,0,0.04,0.04,0.04,0.04c0.05,0.31,0.24,0.44,0.56,0.4c1.03,0.38,2.27-0.34,3.21,0.55
			c2.95,1.6,6.22,0.47,9.3,1c0,0,0.13,0.02,0.13,0.02c3.06,0.68,6.21,0.66,9.32,0.96c0.13,0.12,0.29,0.17,0.48,0.14
			c1.57,1.76,3.5-0.09,5.12,0.45c5.1,1.7,10.26-0.43,15.36,0.41c2.88,0.39,5.75,0.78,8.63,1.17c0,0,0,0,0,0
			c0.75,0.6,1.59,0.91,2.58,1.1c4.73,0.88,5.02,1.26,5.62,5.86c0.3,2.28,1.03,3.8,4.11,4.1c2.71,0.26,5.47,1.12,8.15,2.18
			c4.39,1.74,8.37,4.7,13.5,4.66c1.72-0.02,2.93,0.93,2.64,2.91c-0.24,1.66,0.69,2.66,2.23,3.25c1.61,0.62,3.19,1.3,4.83,1.86
			c5,1.71,10.13,3.23,14.55,6.08c3.57,2.29,4.55,2.92,8.85,2.97c0.26,0,0.52-0.01,0.78-0.02c0.08-0.08,0.15-0.16,0.23-0.24
			c0,0,0,0,0,0c1.49,0,2.88,1.56,4.52,0.19c0.31-0.26,0.63,0.6,0.84,1.02c-0.63,0.82-1.6,1.71,0.41,2.06
			c0.5-0.02,1.01-0.05,1.51-0.07c0.37,0.56,0.9,0.77,1.58,0.65c0.86,0.48,1.72,0.96,2.58,1.44c0.28-0.18,0.57-0.35,0.85-0.53
			c-1.5-1.94,0.08-3.48,0.74-5.14c1-0.13,1.57-0.63,1.49-1.64c-0.03-0.44-0.4-0.8-0.84-0.81c-0.87,0-1.98-0.45-2.22,0.95
			c-1.06,0.02-2.16-0.12-3.05,0.64c-0.3,1.38-0.88,2.46-2.36,2.51c1.48-0.05,2.06-1.13,2.36-2.51c-2.23-0.86-2.75-2.87-3.16-4.75
			c-0.19-0.91,0.16-2.25,1.33-2.77c1.02-0.45,1.9,0.14,2.89,0.58c2.5,1.09,4.93,2.41,7.72,2.82c0.1,2.92,0.79,3.6,3.92,4.02
			c1.44,0.19,1.94,1.48,2.25,2.48c0.63,1.99,1.94,2.72,3.89,2.43c2.92-0.44,4.09,1.07,4.64,3.44c0.31,0.03,0.62,0.06,0.93,0.09
			c-0.31-0.03-0.62-0.06-0.93-0.09c-0.87,0.19-1.75,0.38-2.62,0.57c-0.67-0.36-0.85-1.02-1.04-1.64c-0.28-0.89-0.98-0.85-1.72-0.81
			c-0.65,0.04-1.23,0.47-1.36,1.11c-0.12,0.57-0.08,1.19-0.29,1.72c-0.53,1.34-0.27,2.79,0.94,3.22c1.12,0.4,2.34-0.54,2.93-1.76
			c0.13-0.28,0.36-0.53,0.54-0.79c0.91,0.55,0.22,2.32,1.54,2.3c2.42-0.05,4.21,1.1,6.1,2.21c0.59,0.35,1.45,0.76,2.07-0.09
			l0.13-1.13c-0.1-0.22-0.25-0.44-0.42-0.65c-0.24-0.31-0.34-0.73-0.5-1.1l13.66-27.95c-0.52-0.35-1.38-0.11-1.56,0.83
			c-0.13,0.67-0.46,1.04-1.2,1.04c-0.79,0-4.35-2.87-4.65-3.56c-0.92-2.13-3.15-3.03-4.82-4.46c-0.62-0.53-1.67-0.58-1.91-1.55
			c0.11-0.07,0.24-0.11,0.37-0.12c0.14-0.93,0.3-1.91,1.08-1.73c-0.78-0.18-0.94,0.81-1.08,1.74c1.84,0.42,3.98,0.71,5.09,2.14
			c2.29,2.96,5.66,2.97,8.85,3.59c0.33,0.06,0.67,0.03,0.92-0.12l-1.08,2.22c0.06,0.04,0.12,0.09,0.18,0.15
			c2.03,2.38,2.71,0.5,3.59-0.89c0.44-0.71,0.83-1.45,1.29-2.15c0.82-1.25,0.6-1.84-0.93-2.57c-0.39-0.19-0.78-0.4-1.17-0.6
			l-1.45,2.96c0.01-0.45-0.17-0.81-0.69-1c-2.47-0.88-4.2-2.85-6.45-4.07c-0.93-1.01,0.04-1.71,0.43-2.51
			c-0.48-0.67-1.06-1.15-1.7-1.5c0.64,0.35,1.22,0.83,1.7,1.5c2.72,1.54,5.38,3.19,8.16,4.62l2.82-5.77c2,2.11,2.91,1.7,4.93-1.6
			c0.13-0.21,0.13-0.48,0.19-0.72c0.03-0.74,0.06-1.48,0.09-2.22c1.46-1.05,0.99-2.05,0.45-3.05c-0.12-0.22-0.24-0.44-0.35-0.66
			c-0.08-0.17-0.16-0.35-0.21-0.52c0.01-0.07,0.02-0.14,0.03-0.21c0.02-0.14,0.04-0.28,0.05-0.41c0.01-0.25-0.05-0.49-0.26-0.69
			l6.5-13.31c0.46,0.07,0.93,0.08,1.42,0c1.14-0.21,1.57-1.09,1.56-2.02c-0.01-0.69-0.39-1.2-1.34-1.32l7.44-15.23
			c0.76,0.25,1.63,0.26,2.11-0.44c2.12-3.09,4.17-6.23,5.23-9.84l0,0c1.53-1.45,1.46-3.42,1.86-5.24c0.15-0.36,0.3-0.72,0.45-1.08
			c0.13-0.01,0.25-0.02,0.38-0.03c-0.13,0-0.25,0-0.38,0c-0.38-0.35-0.82-0.44-1.28-0.47l-3.56,7.28c-1.37,0.47-2.16-0.5-1.58-1.32
			c1.63-2.28-0.55-2.37-1.6-3.16c0.67-0.13,1.19-0.42,1.41-1.08c0,0,0,0,0,0l-0.01-0.07c0.13-0.26,0.33-0.38,0.63-0.28l0.05-0.03
			c0.05-0.42,0.29-0.51,0.7-0.31c0.74-0.28,1.12-0.43,1.86-0.71c0.16-0.61,0.67-0.68,1.56-0.16c0.21-0.07,0.33-0.11,0.54-0.17
			l2.99-6.11c-1.88-0.97-3.78-2.01-4.92-3.76c-0.27-0.41,1.1-1.59,0.86-3.15c1.61,1.38,3.49,1.23,4.68,2.49
			c0.5,0.2,0.91,0.43,1.22,0.68l2.24-4.59c-0.53-0.19-1.15-0.57-1.89-1.16c-1.06-0.84-2.2-1.6-2.9-2.81
			c-0.8-1.38-3.13-1.39-3.91,0.06c-0.39,0.72-0.71,1.1-1.52,0.94c-0.44-0.09-0.83-0.33-0.86-0.81c-0.04-0.69,0.55-0.99,1.04-1.32
			c1.83-1.26,1.89-2.2,0.16-3.56c-0.61-0.48-1.92-0.71-0.88-1.77c0.84-0.86,1.53,0.08,2.26,0.47c0.82,0.44,0.96,2.25,2.54,1.16
			c-0.23-0.85-0.81-1.62-0.62-2.56c-1.18-0.28-1.88-0.64-2.09-1.11c0.21,0.47,0.9,0.83,2.09,1.11c0.77-0.31,1.43-0.88,2.12,0.31
			c1.81,3.16,5.18,2.95,8.28,3.26l-3.81,7.8c1.39,0.5,2.14-0.38,2.76-2.84c0.11-0.17,0.28-0.43,0.39-0.6
			c1.12-0.71,0.75-1.99,1.09-2.99c0.35-0.58,1.28-1.32-0.39-1.37l0.01-0.1l0,0c0,0,0,0,0,0c-0.46-0.22-0.91-0.47-1.39-0.64
			c-4.89-1.74-4.93-1.82-3.48-6.52c0.26-0.85-0.17-1.74-0.9-1.8c-2.76-0.23-4.65-2.78-7.55-2.48c-3.02,0.31-3.76-1.53-4.17-3.86
			c-0.32-1.8-0.03-4.34-3.44-3.43c-0.22,0.06-0.6-0.28-0.87-0.49c-2.61-2.06-5.12-1.97-7.64,0.3c-4.09,0.58-7.87-0.47-11.54-2.04
			c-1.27-0.54-2.05-1.04-0.58-2.19c2.22-1.74,4.42-3.51,6.47-5.46c0.97-0.92,2.24-1.79,2.3-3.32c-1.1-0.51-2.46-0.05-3.48-0.87
			c-0.14-0.06-0.28-0.12-0.42-0.18c0.14,0.06,0.28,0.12,0.42,0.18c1.01,0.82,2.38,0.36,3.48,0.87c1.39-0.73,2.78-1.45,4.18-2.18
			c0.37,0.05,0.85,0.29,0.84-0.4c1.35-0.6,2.46-1.45,3.12-2.76c0,0,0,0.01,0,0.01s0.21,0,0.21,0l-0.21-0.02
			c-0.02-0.48-0.03-0.96-0.05-1.44c0.01,0,0.2,0,0.2,0l-0.2-0.04h0c0,0,0,0.01,0,0.02c0,0.01,0,0.02,0,0.02
			c-0.12-0.02-0.24-0.02-0.37,0c-0.11-0.38-0.1-0.86-0.35-1.13c-3.68-4.08-8.64-6.45-13.47-8.92c-1.24-0.63-2.73-1.48-4.38-1.2
			c-0.1-0.98-0.97-0.78-1.58-0.93c-2.44-0.6-4.92-0.94-7.43-1.2c-4.73-0.48-6.07,0.49-6.4,5c-0.04,0.49,0.23,1.11-0.46,1.21
			c-1.33,0.19-2.59-0.18-3.73-0.85c-1.09-0.64-0.46-1.44-0.13-2.17c0.35-0.79,0.63-1.56,0.14-2.38c0.25,0.06,0.6,0.08,0.5-0.23
			c-0.09-0.29-0.48-0.39-0.82-0.16c-0.26-0.13-0.52-0.27-0.78-0.4c-0.58-1.23-1.75-0.55-2.65-0.72c-0.63-0.12-1.54,0.16-1.47-0.89
			c0.17-2.45-1.81-2.09-3.18-2.03c-1.85,0.08-3.03,1.49-3.22,3.06c-0.2,1.66,1.52,1.66,2.78,1.87c0.32,0.05,0.63,0.19,0.95,0.28
			c0.23-0.84,0.52-0.24,0.8-0.01c-0.27,0.01-0.53,0.02-0.8,0.03c-1.43,1.87-6.25,1.79-7.14-0.19c-0.5-1.11-1.38-1.61-2.45-1.44
			c-4.88,0.77-9.71-0.19-14.57-0.18c-2.39,0.01-5.22,0.93-5.96-2.59c-0.05-0.24-0.52-0.41-0.82-0.58c-2.65-1.57-5.34-3.07-8.37-3.89
			c-0.77-0.83-1.78-1.29-2.85-1.68c-4.75-1.74-9.87-2.13-14.65-3.52c-6.56-1.91-12.91-4.4-19.72-5.63
			c-4.34-0.78-8.34-2.81-12.71-3.74c-8.18-1.74-16.22-0.82-24.27,0.51c-1.27,0.21-3.34,0.25-4.62,0.1
			c-5.05-0.58-10.1-1.21-15.22-0.88c-5.22,0.34-10.44,0.96-15.67,0.16c-1.88-1.2-3.98-0.79-6.02-0.77
			c-0.47-0.14-1.18-0.35-1.65-0.49c-0.5-0.39-1.16-0.4-1.79-0.46c-3.46-0.33-6.91-0.65-10.37-0.96c-2.93-0.26-5.81-0.75-8.79-0.85
			c-8.18-0.26-15.95,2.47-24.03,2.71c-0.67,0.02-1.16,0.36-1.56,0.81c-1.01,1.17-2.39,1.58-3.87,1.85c-1.13,0.2-2.29,0.55-3,1.4
			c-2.1,2.51-5.05,3.25-8.09,3.48c-2.07,0.15-3.07,1.04-3.68,2.71c-0.72,0.13-0.91,0.17-1.63,0.31c-0.44-0.57-0.8-0.58-1.05,0.18
			c-0.32,0.08-0.63,0.15-0.95,0.23c-0.49-0.26-0.97-0.09-1.44,0.03c-0.36-0.35-0.67-0.45-0.8,0.18c-0.3,0.09-0.6,0.17-0.9,0.26
			c-0.26,0.04-0.51,0.07-0.76,0.11c-3.43,0.01-6.88,0.31-10.29,0.07c-3.76-0.26-7.27,0.17-10.68,1.8c-2.39,1.14-4.91,1.99-7.37,2.99
			c-0.85,0.35-1.77,1.13-2.65,0.51c-0.99-0.69,0.04-1.68-0.02-2.54c0.53-0.26,0.81-0.66,0.76-1.25l-0.11-0.1c0,0,0,0,0,0
			c0,0,0.11,0.1,0.11,0.1c1.55-0.57,2.08-2.22,3.48-2.95c0.42-0.22,0.7-0.56,0.4-1.02c-0.27-0.4-0.84-0.54-1.14-0.28
			c-1.62,1.38-3.97,1.21-5.61,2.5c-0.55,0.07-1.08,0.17-1.31,0.75c-1.75,0.39-3.66,0.37-4.95,1.94c-0.21,0.08-0.36,0.14-0.57,0.21
			c-0.72-0.22-1.2,0.02-1.46,0.69c-0.24,0.13-0.47,0.26-0.71,0.39c-0.06-0.03-0.12-0.07-0.17-0.1c0.04,0.04,0.08,0.09,0.11,0.13
			c-0.17,0.07-0.34,0.15-0.52,0.22c-0.43-0.17-0.84-0.28-0.98,0.33c-0.17,0.04-0.3,0.13-0.39,0.28c-1.25,0.03-2.21,0.56-2.9,1.55
			c-0.16,0.04-0.31,0.14-0.4,0.28c-2.26,0.51-4.52,1.01-6.77,1.55c-2.06,0.49-4.29,0.31-6.21,1.39c-0.2,0.08-0.41,0.15-0.61,0.23
			c-1.06-0.28-1.94,0.23-2.86,0.58c-0.45,0.18-0.91,0.37-1.36,0.56c0-0.01-0.05-0.09-0.05-0.09l0.04,0.1c0,0,0.01,0,0.01,0
			c-0.19,0.11-0.38,0.22-0.58,0.33c-1.8-0.04-3.4,0.42-4.67,1.72c-0.15,0.13-0.31,0.26-0.46,0.4l-0.11-0.09c0,0,0.09,0.12,0.08,0.12
			c-0.15,0.14-0.3,0.29-0.45,0.43c-2.83,0.95-5.58,2.09-8.24,3.44c-0.25,0.14-0.5,0.28-0.76,0.41c-0.37-0.17-0.59-0.1-0.59,0.33
			c-0.18,0.06-0.36,0.12-0.54,0.17v0c-3.51,0.43-7.1,0.62-10.52,1.29c-3.31,0.65-7.03,0.68-9.82,2.89
			c-2.69,2.14-5.89,3.13-9.05,4.26c-0.49,0.17-1.04,0.2-1.13,0.84c-0.11,0-0.2,0.04-0.25,0.14c-0.5-0.12-0.99-0.22-1.26,0.37
			c-0.19-0.03-0.3,0.05-0.34,0.23c-0.28-0.18-0.35-0.06-0.33,0.2c0,0-0.14-0.03-0.14-0.03l-0.07,0.13c-0.3-0.13-0.5-0.08-0.53,0.27
			c-1.93,0.95-3.87,1.9-5.8,2.85c-0.26-0.22-0.41-0.15-0.49,0.16c-0.55,0.08-1.09,0.17-1.64,0.25c-2.31-0.05-4.67-0.58-6.84,0.67
			c-0.34,0.17-0.67,0.33-1.01,0.5c-0.3-0.21-0.35-0.06-0.3,0.2c0,0-0.15,0.09-0.15,0.09c-0.32-0.1-0.51-0.01-0.55,0.32
			c-4.85,3.36-10.43,5.3-16.02,7.04c-2.94,0.92-4.76,3.36-7.67,4.08c-0.87,0.22-1.91,0.56-1.56,1.59c0.48,1.41,1.48,0.4,2.33,0.23
			c2.82-0.55,5.67-0.91,9.29-1.01c-0.91,0.64-1.15,0.92-1.44,1c-5.24,1.38-9.6,4.21-13.84,7.35c-2.8,2.07-6.47,3.16-9.79,2.86
			c-3.9-0.35-7.42,0.09-10.97,1.31c-1.51,0.52-3.13,0.99-4.51-0.01c-2.26-1.64-4.29-0.9-6.25,0.34c-2.24,1.42-4.32,3.08-6.58,4.48
			c-3.99,2.48-7.19,6.12-11.9,7.53c-3.7,1.11-6.48,3.33-9.05,6.04c-3.85,4.05-8.11,7.71-12.75,10.94c-0.63-0.13-1.04,0.14-1.33,0.65
			c-0.15-0.02-0.27,0.03-0.37,0.14c-0.8-0.03-1.34,0.28-1.6,1.02c-0.14,0-0.23,0.07-0.27,0.2c-0.32-0.12-0.4,0-0.32,0.29
			c-0.14,0.03-0.21,0.12-0.23,0.25c-0.25-0.08-0.38-0.04-0.22,0.23c-0.15,0.02-0.25,0.1-0.29,0.25c-0.3-0.13-0.39-0.03-0.29,0.26
			c-0.15,0.04-0.23,0.14-0.26,0.28c-0.1,0.02-0.2,0.04-0.3,0.06c0.03,0.05,0.06,0.1,0.09,0.15c-0.15,0.02-0.26,0.11-0.3,0.25
			c-0.3-0.12-0.4-0.04-0.27,0.26c-0.15,0.04-0.24,0.13-0.27,0.28c-0.27-0.17-0.32-0.07-0.24,0.18c-0.15,0.02-0.26,0.09-0.33,0.22
			c-0.26-0.11-0.39-0.07-0.3,0.23c-0.15,0.04-0.24,0.12-0.27,0.27c-0.29-0.13-0.34-0.03-0.21,0.22c-0.14,0.04-0.24,0.13-0.28,0.27
			c-0.28-0.1-0.39-0.03-0.26,0.26c-0.15,0.04-0.24,0.14-0.28,0.28c-0.28-0.17-0.32-0.06-0.23,0.19c-0.14,0.02-0.25,0.09-0.32,0.21
			c-0.53-0.09-0.79,0.19-0.93,0.63c-0.14,0.01-0.24,0.07-0.31,0.19c-0.71,0.06-1.27,0.32-1.56,0.98c-0.15,0.01-0.26,0.08-0.33,0.2
			c-0.27-0.15-0.36-0.05-0.36,0.22c-0.14,0.01-0.25,0.07-0.34,0.17c0,0-0.16,0.08-0.16,0.08c-0.15,0.11-0.31,0.23-0.47,0.34
			c-0.44,0.01-0.84,0.08-0.9,0.61c-0.15-0.01-0.26,0.06-0.32,0.19c-0.27-0.17-0.37-0.09-0.32,0.2c-0.13,0-0.22,0.05-0.28,0.16
			c-0.74-0.03-1.41,0.06-1.72,0.84c-0.16,0-0.3,0.06-0.4,0.19c-0.23-0.15-0.34-0.09-0.33,0.18c-0.39,0.22-0.79,0.43-1.18,0.65
			l-0.12-0.12c0,0-0.04,0.17-0.05,0.17c-0.16-0.01-0.3,0.04-0.41,0.17c-0.7-0.01-1.27,0.24-1.69,0.78
			c-0.64,0.32-1.28,0.65-1.92,0.97l-0.01,0.15c0,0-0.15-0.06-0.15-0.06c-0.17,0-0.29,0.07-0.37,0.2c0.05,0.28-0.07,0.33-0.31,0.19
			c-0.14,0.02-0.25,0.08-0.31,0.21c0.04,0.28-0.03,0.36-0.28,0.15c-0.36,0.23-0.71,0.47-1.07,0.7c-0.08,0.36,0.04,0.92-0.69,0.63
			c-0.2,0.14-0.41,0.28-0.61,0.42c0.14,0.96-0.46,1.02-1.2,0.91c-0.15,0.03-0.24,0.12-0.28,0.27c0.11,0.25,0.03,0.32-0.23,0.22
			c-0.14,0.03-0.24,0.11-0.29,0.24c0.1,0.27,0,0.36-0.28,0.27c-0.13,0.05-0.21,0.14-0.24,0.28c0.1,0.25,0.02,0.32-0.24,0.23
			c-0.14,0.02-0.24,0.09-0.29,0.22c0.1,0.27,0,0.36-0.29,0.28c-0.13,0.05-0.21,0.15-0.23,0.28c0.08,1.23-0.5,1.82-1.8,1.75
			c-0.15,0.02-0.25,0.11-0.31,0.24c0.11,0.24,0.04,0.32-0.22,0.24c-0.14,0.07-0.21,0.19-0.21,0.34c-1.36,3.06-3.02,5.88-6.34,7.41
			c0,0-2.72,9.27-13.21,24.46c-5.19,7.52-20.41,14.14-22.01,26.49c-1.64,12.65-6.87,26.04-11.49,42.21
			c-3.2,11.21-10.72,23.5-12.51,36.66c-0.91,6.66-1.6,13.58-2.03,20.74c-0.91,15.07-0.68,31.24,1.07,48.49l22.96-32.31l22.58-17.03
			l15.53-26.89l28.16-29.47c5.56-4.79,13.2-1.33,21.86-6.9c3.72-2.39,11.38-2.5,11.76-7.26c0.73-8.93,12.14-7.03,18.55-10.48
			c15.64-8.42,34.08-19.9,49.38-26.23c11.38-4.71,20.24-5,29.11-7.34c6.55-1.72,12.92-3.73,18.64-5.71
			c11.85-4.1,20.29-17.19,22.36-18.21c3.97-1.94,18.27,4.23,33.35,1.14c20.05-4.1,42.56-8.43,47.93-10.85
			c0.57,0.29,81.32,4.44,81.11,4.89c-8.02,17.39-14.63,10.45,13.29,0c8.54-3.2-17.77,5.05-8.99,2.61 M470.76,219.05 M377.26,87.43
			c0,0,0.07,0.05,0.12,0.09L377.26,87.43C377.26,87.43,377.26,87.43,377.26,87.43z M251.17,176.87c-0.09,0.77,0.09,1.59-0.41,2.28
			C251.26,178.46,251.09,177.64,251.17,176.87c-0.05-0.47,0.57-1.02,0.22-1.41C251.74,175.85,251.12,176.4,251.17,176.87z
			 M269.08,260.28c0.07-0.46,0.49-0.58,0.98-0.59c0,0,0,0,0,0C269.57,259.7,269.15,259.81,269.08,260.28z M300.3,111.21
			C300.3,111.21,300.3,111.21,300.3,111.21C300.3,111.21,300.3,111.21,300.3,111.21c0.31-0.1,0.61-0.21,0.91-0.33
			C300.91,111,300.61,111.11,300.3,111.21z M314.95,105.21L314.95,105.21c0.41-0.13,0.83-0.26,1.24-0.39
			C315.78,104.96,315.36,105.08,314.95,105.21z M316.45,165.73c-0.04-0.1-0.07-0.25-0.12-0.33
			C316.38,165.48,316.4,165.63,316.45,165.73C316.45,165.73,316.45,165.73,316.45,165.73z M316.5,104.75L316.5,104.75
			c1.46-0.06,2.92-0.12,4.38-0.18C319.42,104.63,317.96,104.69,316.5,104.75z M326.06,103.72L326.06,103.72
			c-0.31,0.13-0.62,0.27-0.93,0.4C325.43,103.98,325.75,103.85,326.06,103.72c0.01-0.01,0.02-0.02,0.04-0.04
			C326.08,103.69,326.07,103.7,326.06,103.72z M335.89,99.57c-0.19,0.09-0.37,0.19-0.51,0.31C335.52,99.76,335.7,99.66,335.89,99.57
			z M344.51,103.07c0.25,0.04,0.49,0.05,0.7-0.02C345,103.12,344.76,103.11,344.51,103.07z M351.6,99.74l-0.14,0.05c0,0,0,0,0,0
			c-1.08,0.07-2.11,0.27-2.86,1.12c-0.56,0.23-1.13,0.46-1.69,0.68c-0.26-0.18-0.44-0.12-0.53,0.18c-0.18,0.08-0.36,0.16-0.54,0.25
			c-0.93-0.03-1.76,0.22-2.41,0.88c-0.55,0.16-1.1,0.31-1.64,0.47c0,0,0,0,0,0c-1.33,0.09-2.66,0.17-3.99,0.26
			c-0.52-0.19-1.04-0.39-1.56-0.58c0.06-0.52-0.19-0.5-0.54-0.27c-0.13-0.1-0.27-0.2-0.41-0.29c0.27-0.35,0.44-0.73,0.27-1.17
			c6-0.97,11.91-2.47,18.34-2.96C352.95,98.93,352.27,99.34,351.6,99.74z M367.6,95.9c0.17-0.28-0.07-0.36-0.33-0.37
			c0.03-0.16,0.02-0.31-0.04-0.46c0.06,0.15,0.07,0.3,0.04,0.46C367.52,95.54,367.77,95.62,367.6,95.9z M367.22,95.07L367.22,95.07
			c0.15,0.03,0.28,0.03,0.4,0.01C367.5,95.1,367.37,95.1,367.22,95.07z M368.52,94.43c0.03-0.05,0.04-0.11,0.03-0.19
			c-0.45-0.23-1.11-0.02-1.53-0.2c0.42,0.19,1.09-0.03,1.54,0.2C368.56,94.31,368.55,94.37,368.52,94.43z M368.9,94.12
			c0.24,0,0.48-0.01,0.69-0.1C369.38,94.11,369.14,94.12,368.9,94.12z M370.01,93.67C370.01,93.67,370.01,93.67,370.01,93.67
			c0.1-0.03,0.19-0.08,0.28-0.15C370.2,93.59,370.11,93.63,370.01,93.67z M370.62,93.32C370.62,93.32,370.62,93.32,370.62,93.32
			c1.48-1.11,3.14-2.03,4.48-3.29C373.76,91.29,372.1,92.21,370.62,93.32z M376.67,90.55c-0.06-0.11-0.12-0.21-0.19-0.33
			c0.07-0.06,0.13-0.11,0.19-0.16c0.06,0.11,0.13,0.21,0.16,0.33C376.84,90.43,376.73,90.5,376.67,90.55z M408.26,85.17
			c0.21,0.13,0.42,0.26,0.6,0.25C408.68,85.43,408.47,85.3,408.26,85.17z M417.66,83.17C417.66,83.17,417.66,83.17,417.66,83.17
			c0.36-0.18,0.71-0.36,1.07-0.53C418.37,82.82,418.02,82.99,417.66,83.17z M439.68,73.7C439.68,73.7,439.68,73.7,439.68,73.7
			c0.62-0.06,1.24-0.12,1.86-0.19C440.92,73.57,440.3,73.63,439.68,73.7z M449.71,72.12C449.71,72.12,449.71,72.12,449.71,72.12
			c0.39-0.05,0.78-0.11,1.18-0.16C450.49,72.02,450.1,72.07,449.71,72.12z M478.98,73.4c0.17,0.09,0.34,0.12,0.52,0.09
			C479.32,73.52,479.15,73.49,478.98,73.4z M480.05,73.22C480.05,73.22,480.05,73.22,480.05,73.22c0.19,0.01,0.39,0.02,0.58,0.03
			C480.44,73.24,480.25,73.23,480.05,73.22z M488.78,216.13c0.02-0.09,0.11-0.2,0.15-0.29c0,0,0,0,0,0
			C488.89,215.93,488.81,216.04,488.78,216.13z M514.22,84.6c-0.15-0.39-0.63-0.37-1.1-0.37C513.59,84.23,514.07,84.21,514.22,84.6
			C514.22,84.6,514.22,84.6,514.22,84.6z M514.26,85.31c0.09,0.38,0.31,0.6,0.59,0.75C514.56,85.91,514.35,85.68,514.26,85.31z
			 M529.4,86.64c-0.59,0.42-1.12,0.61-1.55,0.35C528.28,87.25,528.81,87.06,529.4,86.64c1.02-0.2,1.66-0.47,1.96-0.94
			C531.06,86.17,530.42,86.44,529.4,86.64z M592.02,105.72c0,0.17,0.03,0.33,0.09,0.48C592.05,106.05,592.01,105.89,592.02,105.72z
			 M600.33,90.1c-0.6-0.37-1.21-0.74-1.81-1.11C599.12,89.36,599.72,89.73,600.33,90.1C600.33,90.1,600.33,90.1,600.33,90.1z
			 M600.47,90.17c0.09,0.06,0.17,0.14,0.2,0.25C600.63,90.31,600.56,90.23,600.47,90.17z M600.82,90.56c0,0-0.07-0.06-0.11-0.1
			L600.82,90.56C600.82,90.56,600.82,90.56,600.82,90.56z M601.6,109.17C601.6,109.17,601.6,109.17,601.6,109.17
			c1.1-0.11,2.13-0.15,2.91-0.89C603.73,109.02,602.69,109.06,601.6,109.17z M607.56,96.03c-0.04-1.06-0.38-1.86-0.91-2.47
			C607.19,94.18,607.52,94.97,607.56,96.03c0.59,0.13,1.19,0.25,1.79,0.35C608.75,96.28,608.16,96.17,607.56,96.03z M611.41,109.8
			c0.15-0.15,0.23-0.38,0.25-0.67c0-0.53-0.14-0.99-0.82-0.97c0.68-0.02,0.82,0.44,0.82,0.97
			C611.65,109.41,611.57,109.65,611.41,109.8z M618,104.06c-0.52,0.17-1.14,0.76-1.66,0.94C616.85,104.83,617.48,104.23,618,104.06
			C618,104.06,618,104.06,618,104.06z M619.57,102.6L619.57,102.6c0.07,0.01,0.15,0.01,0.24,0.02
			C619.72,102.61,619.65,102.61,619.57,102.6z M652.59,102.08L652.59,102.08c-0.23-0.24-0.44-0.5-0.68-0.73
			C652.15,101.57,652.36,101.83,652.59,102.08z M647.33,104c0.24-0.32,0.55-0.42,0.89-0.43C647.89,103.58,647.58,103.68,647.33,104
			c-1.15-1.74-2.42-2.07-3.78-1.59C644.91,101.93,646.19,102.26,647.33,104z M643.36,107.79c0.02,0.71,0.17,1.42,0.18,2.13
			c-0.14,0.04-0.27,0.09-0.41,0.12c0.14-0.04,0.27-0.08,0.41-0.12C643.54,109.21,643.39,108.49,643.36,107.79z M640.52,102.23
			c0.5-0.1,0.94-0.24,1.35-0.43C641.46,101.99,641.01,102.13,640.52,102.23C640.52,102.23,640.52,102.23,640.52,102.23z
			 M641.66,103.51C641.66,103.51,641.66,103.51,641.66,103.51c-0.37-0.04-0.74-0.08-1.11-0.12
			C640.93,103.44,641.29,103.48,641.66,103.51z M626.9,104.09c1.49,0.22,2.76-0.02,3.89-0.55
			C629.66,104.07,628.39,104.31,626.9,104.09c-0.17,0.22-0.34,0.34-0.5,0.36C626.57,104.43,626.73,104.31,626.9,104.09z
			 M630.24,108.09c-0.71-0.24-1.73,0.27-2.38-0.12c0,0,0,0,0,0C628.51,108.36,629.53,107.85,630.24,108.09z M625.86,104.06
			c0.06,0.1,0.12,0.18,0.19,0.24C625.99,104.24,625.92,104.16,625.86,104.06c-0.01,0-0.01,0-0.02,0
			C625.85,104.05,625.86,104.06,625.86,104.06z M624.74,247.59C624.74,247.59,624.74,247.59,624.74,247.59
			c0.46,0.22,0.89,0.52,1.33,0.8C625.64,248.11,625.21,247.81,624.74,247.59z M625.43,217.12
			C625.43,217.12,625.43,217.12,625.43,217.12c0.02,0.08,0.03,0.16,0.06,0.24C625.46,217.28,625.45,217.2,625.43,217.12z
			 M625.4,108.61c0.31,0.18,0.61,0.35,0.92,0.53c0.33,0.63,0.54,1.48,0.97,1.96c-0.42-0.48-0.63-1.33-0.97-1.96
			C626.01,108.97,625.71,108.79,625.4,108.61z M626.51,217.36c0.97,0.06,1.96-0.21,2.94-0.26
			C628.47,217.14,627.48,217.42,626.51,217.36z M630.97,109.15c0.78,0.53,1.64,0.84,2.54,0.84
			C632.61,109.99,631.75,109.68,630.97,109.15c-0.48-0.03-0.96-0.05-1.45-0.08C630.01,109.1,630.49,109.12,630.97,109.15z
			 M633.09,113.65c-0.67-0.08-1.08-0.46-1.43-0.91C632,113.19,632.42,113.56,633.09,113.65c0.05,0.33,0.05,0.58,0.02,0.77
			C633.13,114.22,633.13,113.97,633.09,113.65z M631.59,222.11c-0.97,1.14-1.49,2.25-1.56,3.15
			C630.09,224.36,630.62,223.25,631.59,222.11c0.19-0.66,0.51-1.06,0.91-1.23C632.09,221.05,631.78,221.45,631.59,222.11z
			 M634.75,204.03c-0.34-0.01-0.68-0.03-1.02-0.04c-0.86-0.87-1.94-1.02-2.91-0.85c0.98-0.17,2.05-0.02,2.91,0.85
			C634.07,204.01,634.41,204.02,634.75,204.03c1.47-1.22,2.71-1.53,3.99-0.93C637.45,202.5,636.21,202.81,634.75,204.03z
			 M639.41,230.76c1.51-0.05,2.95,0.33,4.36,0.25c0,0,0,0,0,0C642.36,231.09,640.92,230.7,639.41,230.76z M640.74,210.95
			c0.58-0.39,1.15-0.78,1.34-1.52c0,0,0,0,0,0C641.89,210.18,641.32,210.56,640.74,210.95z M642.57,203.97
			c-0.84,0.01-1.69,0.03-2.53,0.04C640.88,204,641.72,203.99,642.57,203.97c1.08-0.93,2.13-1.25,3.16-0.72
			c0.34,0.18,0.68,0.45,1.02,0.83c0.19,0.04,0.37,0.09,0.56,0.13c-0.19-0.04-0.37-0.09-0.56-0.13c-0.34-0.38-0.68-0.66-1.02-0.83
			C644.7,202.72,643.64,203.04,642.57,203.97z M646.78,211.72C646.78,211.72,646.78,211.72,646.78,211.72
			c-0.15-0.23-0.31-0.45-0.46-0.68C646.47,211.27,646.62,211.5,646.78,211.72c0.7-0.04,1.39-0.08,2.09-0.12
			c0.01-0.83,0.02-1.65,0.03-2.48c-0.01,0.83-0.02,1.65-0.03,2.48C648.17,211.64,647.48,211.68,646.78,211.72z M648.92,269.08
			c-0.18-0.16-0.34-0.34-0.49-0.52C648.59,268.74,648.75,268.92,648.92,269.08L648.92,269.08z M649.93,105.59
			c-0.34,0-0.68,0-1.02,0.01c-0.33,0.18-0.66,0.35-0.99,0.53c0.33-0.18,0.66-0.35,0.99-0.53
			C649.25,105.6,649.59,105.59,649.93,105.59c1.14,0.84,2.08,1.37,2.98,1.58C652.01,106.96,651.07,106.43,649.93,105.59z
			 M653.81,107.28c0.45,0,0.9-0.08,1.38-0.23C654.71,107.21,654.26,107.28,653.81,107.28z M658.78,213.18
			C658.78,213.18,658.78,213.18,658.78,213.18c0.48,0.32,0.83,0.93,1.44,0.96C659.61,214.11,659.27,213.5,658.78,213.18z
			 M659.76,106.1c0.28,0.05,0.48,0.2,0.61,0.43C660.24,106.3,660.04,106.15,659.76,106.1z M671.05,224.97
			c-1.59-1.61-3.13-3.28-5.22-4.35c-0.39-0.53-0.78-1.06-1.17-1.58l0.13-0.17c0,0-0.12-0.17-0.12-0.17
			c2.52,0.26,4.64,1.08,5.58,3.59c0.26,0.69,0.84,1.13,1.58,1.02c0.01,0,0.02,0,0.03,0L671.05,224.97z M678.66,173.02
			c0.21-0.36,0.47-0.63,0.81-0.77C679.13,172.39,678.86,172.66,678.66,173.02c-0.14,0-0.26,0.06-0.34,0.16
			C678.4,173.08,678.51,173.02,678.66,173.02z M673.25,175.68c0.46-0.36,0.9-0.89,1.49-1.07
			C674.15,174.79,673.71,175.32,673.25,175.68z M676,174.04c-0.16,0.18-0.32,0.37-0.48,0.55c0,0,0,0,0,0
			C675.68,174.41,675.84,174.22,676,174.04c-0.1-0.52,0.15-0.47,0.41-0.41C676.15,173.57,675.9,173.52,676,174.04z M677.25,175.72
			c-0.12,0.6-0.54,1.02-0.99,1.15C676.72,176.74,677.14,176.32,677.25,175.72c0,0,0.02-0.05,0.02-0.05L677.25,175.72z
			 M678.31,175.16c-0.12,0.22-0.29,0.36-0.5,0.44C678.02,175.52,678.19,175.38,678.31,175.16c0.51-0.21,1.01-0.43,1.52-0.64
			C679.32,174.73,678.82,174.94,678.31,175.16z M680.09,175.96c0.01-0.12,0.02-0.23,0.03-0.35
			C680.11,175.73,680.1,175.84,680.09,175.96c0.69,0.11,1.37,0.23,2.05,0.13C681.46,176.19,680.78,176.07,680.09,175.96z
			 M683.37,129.88c0.13-0.18,0.17-0.38,0.14-0.58C683.53,129.51,683.49,129.7,683.37,129.88z M688.8,136.85
			c-0.45,0.09-0.54-0.28-0.52-0.58c0.02-0.18,0.22-0.45,0.38-0.49c0.46-0.1,0.47,0.29,0.56,0.66
			C689.1,136.57,688.98,136.82,688.8,136.85z M682.85,128.23C682.85,128.23,682.85,128.23,682.85,128.23
			c2.76-0.17,5.58,1.78,7.04,4.36C688.43,130.01,685.61,128.06,682.85,128.23z"/>
		
			<linearGradient id="SVGID_00000143608067703255077160000003353921117713580222_" gradientUnits="userSpaceOnUse" x1="633.0969" y1="97.5689" x2="633.0761" y2="97.5689">
			<stop  offset="0.0647" style="stop-color:#FAEE73"/>
			<stop  offset="0.4098" style="stop-color:#927415"/>
			<stop  offset="0.6455" style="stop-color:#624D16"/>
		</linearGradient>
		<path style="fill:url(#SVGID_00000143608067703255077160000003353921117713580222_);" d="M633.08,97.56
			c0,0.01-0.01,0.01-0.01,0.02c0,0,0,0,0,0c0-0.01,0.01-0.01,0.02-0.02C633.09,97.56,633.09,97.56,633.08,97.56z"/>
		
			<linearGradient id="SVGID_00000051379186076485301330000015832128753205344916_" gradientUnits="userSpaceOnUse" x1="234.9341" y1="326.6106" x2="234.4629" y2="326.6106">
			<stop  offset="0.0647" style="stop-color:#FAEE73"/>
			<stop  offset="0.4098" style="stop-color:#927415"/>
			<stop  offset="0.6455" style="stop-color:#624D16"/>
		</linearGradient>
		<path style="fill:url(#SVGID_00000051379186076485301330000015832128753205344916_);" d="M234.47,326.94
			c0.15-0.22,0.31-0.44,0.46-0.65C234.57,326.37,234.43,326.59,234.47,326.94z"/>
	</g>
	<path class="st6" d="M675.28,103.53c-0.18,0.25-0.29,0.42-0.41,0.59c-0.13-0.16-0.31-0.31-0.38-0.5c-0.04-0.1,0.11-0.27,0.18-0.41
		C674.85,103.3,675.03,103.4,675.28,103.53z"/>
	<path class="st6" d="M654.18,129.15c-0.13,0.09-0.26,0.25-0.37,0.24c-0.3-0.03-0.41-0.27-0.27-0.52c0.06-0.1,0.32-0.19,0.43-0.14
		C654.07,128.78,654.11,129,654.18,129.15z"/>
	
		<linearGradient id="SVGID_00000031919591209289825790000004076876148147291060_" gradientUnits="userSpaceOnUse" x1="121.965" y1="432.736" x2="697.6221" y2="432.736">
		<stop  offset="0" style="stop-color:#F1DD54"/>
		<stop  offset="0.2156" style="stop-color:#CB9418"/>
		<stop  offset="0.6698" style="stop-color:#F6E95C"/>
		<stop  offset="1" style="stop-color:#A76B18"/>
	</linearGradient>
	
		<rect x="121.97" y="425.98" style="fill:url(#SVGID_00000031919591209289825790000004076876148147291060_);" width="575.66" height="13.51"/>
	<g>
		
			<linearGradient id="SVGID_00000114063038735130616240000012525136756998672262_" gradientUnits="userSpaceOnUse" x1="302.8666" y1="302.7762" x2="315.8657" y2="280.261">
			<stop  offset="0" style="stop-color:#F1DD54"/>
			<stop  offset="0.2156" style="stop-color:#CB9418"/>
			<stop  offset="0.6698" style="stop-color:#F6E95C"/>
			<stop  offset="1" style="stop-color:#A76B18"/>
		</linearGradient>
		<path style="fill:url(#SVGID_00000114063038735130616240000012525136756998672262_);" d="M302.76,299.64
			c1.39,0.86,3.43,1.57,5.58,1.57c3.18,0,5.04-1.68,5.04-4.11c0-2.25-1.29-3.54-4.54-4.79c-3.94-1.4-6.37-3.43-6.37-6.83
			c0-3.76,3.11-6.55,7.8-6.55c2.47,0,4.26,0.57,5.33,1.18l-0.86,2.54c-0.79-0.43-2.4-1.14-4.58-1.14c-3.29,0-4.54,1.97-4.54,3.61
			c0,2.25,1.47,3.36,4.79,4.65c4.08,1.57,6.15,3.54,6.15,7.08c0,3.72-2.76,6.94-8.44,6.94c-2.32,0-4.86-0.68-6.15-1.54
			L302.76,299.64z"/>
		
			<linearGradient id="SVGID_00000155853496362531325600000017285795046087510437_" gradientUnits="userSpaceOnUse" x1="319.9693" y1="301.1888" x2="329.7575" y2="284.2352">
			<stop  offset="0" style="stop-color:#F1DD54"/>
			<stop  offset="0.2156" style="stop-color:#CB9418"/>
			<stop  offset="0.6698" style="stop-color:#F6E95C"/>
			<stop  offset="1" style="stop-color:#A76B18"/>
		</linearGradient>
		<path style="fill:url(#SVGID_00000155853496362531325600000017285795046087510437_);" d="M324.41,281.15v4.97h4.51v2.4h-4.51v9.34
			c0,2.15,0.61,3.36,2.36,3.36c0.82,0,1.43-0.11,1.83-0.21l0.14,2.36c-0.61,0.25-1.57,0.43-2.79,0.43c-1.47,0-2.65-0.47-3.4-1.32
			c-0.89-0.93-1.22-2.47-1.22-4.51v-9.44h-2.68v-2.4h2.68v-4.15L324.41,281.15z"/>
		
			<linearGradient id="SVGID_00000017504121032397410880000002673253063383290774_" gradientUnits="userSpaceOnUse" x1="335.025" y1="302.9062" x2="345.2739" y2="285.1545">
			<stop  offset="0" style="stop-color:#F1DD54"/>
			<stop  offset="0.2156" style="stop-color:#CB9418"/>
			<stop  offset="0.6698" style="stop-color:#F6E95C"/>
			<stop  offset="1" style="stop-color:#A76B18"/>
		</linearGradient>
		<path style="fill:url(#SVGID_00000017504121032397410880000002673253063383290774_);" d="M346.95,298.71
			c0,1.79,0.04,3.36,0.14,4.72h-2.79l-0.18-2.83h-0.07c-0.82,1.4-2.65,3.22-5.72,3.22c-2.72,0-5.97-1.5-5.97-7.58v-10.12h3.15v9.59
			c0,3.29,1,5.51,3.86,5.51c2.11,0,3.58-1.47,4.15-2.86c0.18-0.47,0.29-1.04,0.29-1.61v-10.62h3.15V298.71z"/>
		
			<linearGradient id="SVGID_00000091717220863174745640000012285816531718249104_" gradientUnits="userSpaceOnUse" x1="352.1186" y1="303.4014" x2="363.8934" y2="283.0068">
			<stop  offset="0" style="stop-color:#F1DD54"/>
			<stop  offset="0.2156" style="stop-color:#CB9418"/>
			<stop  offset="0.6698" style="stop-color:#F6E95C"/>
			<stop  offset="1" style="stop-color:#A76B18"/>
		</linearGradient>
		<path style="fill:url(#SVGID_00000091717220863174745640000012285816531718249104_);" d="M355.28,294.06h0.07
			c0.43-0.61,1.04-1.36,1.54-1.97l5.08-5.97h3.79l-6.69,7.12l7.62,10.19h-3.83l-5.97-8.3l-1.61,1.79v6.51h-3.11v-25.4h3.11V294.06z"
			/>
		
			<linearGradient id="SVGID_00000097469788406737786850000004657072904664722844_" gradientUnits="userSpaceOnUse" x1="371.1191" y1="303.3937" x2="380.3439" y2="287.4159">
			<stop  offset="0" style="stop-color:#F1DD54"/>
			<stop  offset="0.2156" style="stop-color:#CB9418"/>
			<stop  offset="0.6698" style="stop-color:#F6E95C"/>
			<stop  offset="1" style="stop-color:#A76B18"/>
		</linearGradient>
		<path style="fill:url(#SVGID_00000097469788406737786850000004657072904664722844_);" d="M379.18,303.43l-0.25-2.18h-0.11
			c-0.97,1.36-2.83,2.57-5.29,2.57c-3.5,0-5.29-2.47-5.29-4.97c0-4.19,3.72-6.47,10.41-6.44v-0.36c0-1.43-0.39-4.01-3.94-4.01
			c-1.61,0-3.29,0.5-4.51,1.29l-0.71-2.07c1.43-0.93,3.5-1.54,5.69-1.54c5.29,0,6.58,3.61,6.58,7.08v6.47c0,1.5,0.07,2.97,0.29,4.15
			H379.18z M378.71,294.6c-3.43-0.07-7.33,0.54-7.33,3.9c0,2.04,1.36,3,2.97,3c2.25,0,3.68-1.43,4.18-2.9
			c0.11-0.32,0.18-0.68,0.18-1V294.6z"/>
		
			<linearGradient id="SVGID_00000084510891835285636000000014008716819961925516_" gradientUnits="userSpaceOnUse" x1="390.4219" y1="303.4241" x2="404.2577" y2="279.4597">
			<stop  offset="0" style="stop-color:#F1DD54"/>
			<stop  offset="0.2156" style="stop-color:#CB9418"/>
			<stop  offset="0.6698" style="stop-color:#F6E95C"/>
			<stop  offset="1" style="stop-color:#A76B18"/>
		</linearGradient>
		<path style="fill:url(#SVGID_00000084510891835285636000000014008716819961925516_);" d="M401.79,278.04v20.93
			c0,1.54,0.04,3.29,0.14,4.47h-2.83l-0.14-3h-0.07c-0.97,1.93-3.08,3.4-5.9,3.4c-4.18,0-7.4-3.54-7.4-8.8
			c-0.04-5.76,3.54-9.3,7.76-9.3c2.65,0,4.43,1.25,5.22,2.65h0.07v-10.34H401.79z M398.64,293.17c0-0.39-0.04-0.93-0.14-1.32
			c-0.46-2-2.18-3.65-4.54-3.65c-3.26,0-5.19,2.86-5.19,6.69c0,3.51,1.72,6.4,5.11,6.4c2.11,0,4.04-1.4,4.61-3.76
			c0.11-0.43,0.14-0.86,0.14-1.36V293.17z"/>
		
			<linearGradient id="SVGID_00000178901956413973334040000000245070079708424368_" gradientUnits="userSpaceOnUse" x1="409.6831" y1="302.648" x2="418.7796" y2="286.8924">
			<stop  offset="0" style="stop-color:#F1DD54"/>
			<stop  offset="0.2156" style="stop-color:#CB9418"/>
			<stop  offset="0.6698" style="stop-color:#F6E95C"/>
			<stop  offset="1" style="stop-color:#A76B18"/>
		</linearGradient>
		<path style="fill:url(#SVGID_00000178901956413973334040000000245070079708424368_);" d="M422.68,294.63
			c0,6.4-4.44,9.19-8.62,9.19c-4.69,0-8.3-3.43-8.3-8.91c0-5.79,3.79-9.19,8.58-9.19C419.32,285.73,422.68,289.34,422.68,294.63z
			 M408.95,294.81c0,3.79,2.18,6.65,5.26,6.65c3,0,5.26-2.83,5.26-6.73c0-2.93-1.47-6.65-5.19-6.65
			C410.56,288.09,408.95,291.52,408.95,294.81z"/>
		
			<linearGradient id="SVGID_00000097486202727774765920000002027164295992919951_" gradientUnits="userSpaceOnUse" x1="429.3245" y1="302.648" x2="438.421" y2="286.8924">
			<stop  offset="0" style="stop-color:#F1DD54"/>
			<stop  offset="0.2156" style="stop-color:#CB9418"/>
			<stop  offset="0.6698" style="stop-color:#F6E95C"/>
			<stop  offset="1" style="stop-color:#A76B18"/>
		</linearGradient>
		<path style="fill:url(#SVGID_00000097486202727774765920000002027164295992919951_);" d="M442.33,294.63
			c0,6.4-4.44,9.19-8.62,9.19c-4.69,0-8.3-3.43-8.3-8.91c0-5.79,3.79-9.19,8.58-9.19C438.96,285.73,442.33,289.34,442.33,294.63z
			 M428.59,294.81c0,3.79,2.18,6.65,5.26,6.65c3,0,5.26-2.83,5.26-6.73c0-2.93-1.47-6.65-5.19-6.65
			C430.2,288.09,428.59,291.52,428.59,294.81z"/>
		
			<linearGradient id="SVGID_00000035499290017754061950000018288469168657707157_" gradientUnits="userSpaceOnUse" x1="443.6636" y1="301.9102" x2="453.4214" y2="285.0092">
			<stop  offset="0" style="stop-color:#F1DD54"/>
			<stop  offset="0.2156" style="stop-color:#CB9418"/>
			<stop  offset="0.6698" style="stop-color:#F6E95C"/>
			<stop  offset="1" style="stop-color:#A76B18"/>
		</linearGradient>
		<path style="fill:url(#SVGID_00000035499290017754061950000018288469168657707157_);" d="M446.3,291.52c0-2.04-0.04-3.79-0.14-5.4
			h2.76l0.11,3.4h0.14c0.79-2.33,2.68-3.79,4.79-3.79c0.36,0,0.61,0.04,0.89,0.11v2.97c-0.32-0.07-0.64-0.11-1.07-0.11
			c-2.22,0-3.79,1.68-4.22,4.04c-0.07,0.43-0.14,0.93-0.14,1.47v9.23h-3.11V291.52z"/>
		
			<linearGradient id="SVGID_00000116233900588510624800000016469937440044759483_" gradientUnits="userSpaceOnUse" x1="457.8146" y1="303.2059" x2="467.3439" y2="286.7007">
			<stop  offset="0" style="stop-color:#F1DD54"/>
			<stop  offset="0.2156" style="stop-color:#CB9418"/>
			<stop  offset="0.6698" style="stop-color:#F6E95C"/>
			<stop  offset="1" style="stop-color:#A76B18"/>
		</linearGradient>
		<path style="fill:url(#SVGID_00000116233900588510624800000016469937440044759483_);" d="M457.57,300.21
			c0.93,0.61,2.57,1.25,4.15,1.25c2.29,0,3.36-1.14,3.36-2.58c0-1.5-0.89-2.33-3.22-3.18c-3.11-1.11-4.58-2.83-4.58-4.9
			c0-2.79,2.25-5.08,5.97-5.08c1.75,0,3.29,0.5,4.26,1.07l-0.79,2.29c-0.68-0.43-1.93-1-3.54-1c-1.86,0-2.9,1.07-2.9,2.36
			c0,1.43,1.04,2.07,3.29,2.93c3,1.14,4.54,2.65,4.54,5.22c0,3.04-2.36,5.19-6.47,5.19c-1.9,0-3.65-0.47-4.87-1.18L457.57,300.21z"
			/>
		
			<linearGradient id="SVGID_00000039823611145602640920000011779789535428886947_" gradientUnits="userSpaceOnUse" x1="471.5395" y1="303.1534" x2="483.3506" y2="282.696">
			<stop  offset="0" style="stop-color:#F1DD54"/>
			<stop  offset="0.2156" style="stop-color:#CB9418"/>
			<stop  offset="0.6698" style="stop-color:#F6E95C"/>
			<stop  offset="1" style="stop-color:#A76B18"/>
		</linearGradient>
		<path style="fill:url(#SVGID_00000039823611145602640920000011779789535428886947_);" d="M472.02,303.43
			c0.07-1.18,0.14-2.93,0.14-4.47v-20.93h3.11v10.87h0.07c1.11-1.93,3.11-3.18,5.9-3.18c4.29,0,7.33,3.58,7.3,8.84
			c0,6.19-3.9,9.26-7.76,9.26c-2.5,0-4.51-0.97-5.79-3.26h-0.11l-0.14,2.86H472.02z M475.28,296.49c0,0.39,0.07,0.79,0.14,1.14
			c0.61,2.18,2.43,3.68,4.72,3.68c3.29,0,5.26-2.68,5.26-6.65c0-3.47-1.79-6.44-5.15-6.44c-2.15,0-4.15,1.47-4.79,3.86
			c-0.07,0.36-0.18,0.79-0.18,1.29V296.49z"/>
		
			<linearGradient id="SVGID_00000112602999177415686180000014606609771294571136_" gradientUnits="userSpaceOnUse" x1="495.2891" y1="302.7342" x2="504.1975" y2="287.3042">
			<stop  offset="0" style="stop-color:#F1DD54"/>
			<stop  offset="0.2156" style="stop-color:#CB9418"/>
			<stop  offset="0.6698" style="stop-color:#F6E95C"/>
			<stop  offset="1" style="stop-color:#A76B18"/>
		</linearGradient>
		<path style="fill:url(#SVGID_00000112602999177415686180000014606609771294571136_);" d="M494.27,295.35
			c0.07,4.26,2.79,6.01,5.94,6.01c2.25,0,3.61-0.39,4.79-0.89l0.54,2.25c-1.11,0.5-3,1.07-5.76,1.07c-5.33,0-8.51-3.5-8.51-8.73
			c0-5.22,3.08-9.34,8.12-9.34c5.65,0,7.15,4.97,7.15,8.16c0,0.64-0.07,1.14-0.11,1.47H494.27z M503.5,293.09
			c0.04-2-0.82-5.11-4.36-5.11c-3.18,0-4.58,2.93-4.83,5.11H503.5z"/>
		
			<linearGradient id="SVGID_00000019662761390296401250000000974650089818306990_" gradientUnits="userSpaceOnUse" x1="514.0294" y1="303.4241" x2="527.8652" y2="279.4597">
			<stop  offset="0" style="stop-color:#F1DD54"/>
			<stop  offset="0.2156" style="stop-color:#CB9418"/>
			<stop  offset="0.6698" style="stop-color:#F6E95C"/>
			<stop  offset="1" style="stop-color:#A76B18"/>
		</linearGradient>
		<path style="fill:url(#SVGID_00000019662761390296401250000000974650089818306990_);" d="M525.4,278.04v20.93
			c0,1.54,0.04,3.29,0.14,4.47h-2.83l-0.14-3h-0.07c-0.97,1.93-3.08,3.4-5.9,3.4c-4.18,0-7.4-3.54-7.4-8.8
			c-0.04-5.76,3.54-9.3,7.76-9.3c2.65,0,4.43,1.25,5.22,2.65h0.07v-10.34H525.4z M522.25,293.17c0-0.39-0.04-0.93-0.14-1.32
			c-0.46-2-2.18-3.65-4.54-3.65c-3.26,0-5.19,2.86-5.19,6.69c0,3.51,1.72,6.4,5.11,6.4c2.11,0,4.04-1.4,4.61-3.76
			c0.11-0.43,0.14-0.86,0.14-1.36V293.17z"/>
		
			<linearGradient id="SVGID_00000051361620281367432010000010742429544475178404_" gradientUnits="userSpaceOnUse" x1="527.9899" y1="301.9102" x2="537.7477" y2="285.0092">
			<stop  offset="0" style="stop-color:#F1DD54"/>
			<stop  offset="0.2156" style="stop-color:#CB9418"/>
			<stop  offset="0.6698" style="stop-color:#F6E95C"/>
			<stop  offset="1" style="stop-color:#A76B18"/>
		</linearGradient>
		<path style="fill:url(#SVGID_00000051361620281367432010000010742429544475178404_);" d="M530.63,291.52
			c0-2.04-0.04-3.79-0.14-5.4h2.76l0.11,3.4h0.14c0.79-2.33,2.68-3.79,4.79-3.79c0.36,0,0.61,0.04,0.89,0.11v2.97
			c-0.32-0.07-0.64-0.11-1.07-0.11c-2.22,0-3.79,1.68-4.22,4.04c-0.07,0.43-0.14,0.93-0.14,1.47v9.23h-3.11V291.52z"/>
		
			<linearGradient id="SVGID_00000087373277238617120850000014075080474028076448_" gradientUnits="userSpaceOnUse" x1="538.5771" y1="301.1858" x2="549.5677" y2="282.1495">
			<stop  offset="0" style="stop-color:#F1DD54"/>
			<stop  offset="0.2156" style="stop-color:#CB9418"/>
			<stop  offset="0.6698" style="stop-color:#F6E95C"/>
			<stop  offset="1" style="stop-color:#A76B18"/>
		</linearGradient>
		<path style="fill:url(#SVGID_00000087373277238617120850000014075080474028076448_);" d="M545.97,281.25
			c0.04,1.07-0.75,1.93-2,1.93c-1.11,0-1.9-0.86-1.9-1.93c0-1.11,0.82-1.97,1.97-1.97C545.22,279.29,545.97,280.15,545.97,281.25z
			 M542.47,303.43v-17.31h3.15v17.31H542.47z"/>
		
			<linearGradient id="SVGID_00000119834170676284533680000009517849769128310407_" gradientUnits="userSpaceOnUse" x1="543.5292" y1="308.9389" x2="558.8328" y2="282.4323">
			<stop  offset="0" style="stop-color:#F1DD54"/>
			<stop  offset="0.2156" style="stop-color:#CB9418"/>
			<stop  offset="0.6698" style="stop-color:#F6E95C"/>
			<stop  offset="1" style="stop-color:#A76B18"/>
		</linearGradient>
		<path style="fill:url(#SVGID_00000119834170676284533680000009517849769128310407_);" d="M546.62,308.44
			c1.43-0.11,2.68-0.5,3.43-1.32c0.86-1,1.18-2.36,1.18-6.51v-14.49h3.15v15.7c0,3.36-0.54,5.54-2.08,7.12
			c-1.39,1.4-3.68,1.97-5.37,1.97L546.62,308.44z M554.74,281.25c0.04,1.04-0.72,1.93-1.97,1.93c-1.18,0-1.93-0.89-1.93-1.93
			c0-1.11,0.82-1.97,2-1.97C553.99,279.29,554.74,280.15,554.74,281.25z"/>
		
			<linearGradient id="SVGID_00000137099051505291579110000000618102439334686348_" gradientUnits="userSpaceOnUse" x1="556.3606" y1="301.4146" x2="569.538" y2="278.5905">
			<stop  offset="0" style="stop-color:#F1DD54"/>
			<stop  offset="0.2156" style="stop-color:#CB9418"/>
			<stop  offset="0.6698" style="stop-color:#F6E95C"/>
			<stop  offset="1" style="stop-color:#A76B18"/>
		</linearGradient>
		<path style="fill:url(#SVGID_00000137099051505291579110000000618102439334686348_);" d="M559.85,303.43v-14.92h-2.43v-2.4h2.43
			v-0.82c0-2.43,0.54-4.65,2-6.04c1.18-1.14,2.76-1.61,4.22-1.61c1.11,0,2.07,0.25,2.68,0.5l-0.43,2.43c-0.47-0.21-1.11-0.39-2-0.39
			c-2.68,0-3.36,2.36-3.36,5.01v0.93h4.19v2.4h-4.19v14.92H559.85z"/>
	</g>
	<g>
		
			<linearGradient id="SVGID_00000059292131533070793220000011067055888665179529_" gradientUnits="userSpaceOnUse" x1="207.1298" y1="382.5778" x2="264.9734" y2="282.3897">
			<stop  offset="0" style="stop-color:#F1DD54"/>
			<stop  offset="0.2156" style="stop-color:#CB9418"/>
			<stop  offset="0.6698" style="stop-color:#F6E95C"/>
			<stop  offset="1" style="stop-color:#A76B18"/>
		</linearGradient>
		<path style="fill:url(#SVGID_00000059292131533070793220000011067055888665179529_);" d="M259.75,294.65
			c-4.49,3.44-8.27,7.35-11.34,11.74c-3.08,4.38-5.76,8.99-8.04,13.83c-2.29,4.84-4.34,9.83-6.17,14.99
			c-1.83,5.16-3.76,10.24-5.8,15.24c-2.04,5-4.34,9.85-6.92,14.56c-2.58,4.71-5.78,9.08-9.6,13.09l0.25,0.25
			c4.9-2.87,9.54-5.63,13.9-8.3c4.36-2.66,8.54-5.26,12.53-7.81c10.47-6.64,18.74-12.99,24.8-19.05
			c6.06-6.06,10.63-11.61,13.71-16.65c3.07-5.04,5.03-9.44,5.86-13.21c0.83-3.77,1.25-6.59,1.25-8.48c-1.08-0.33-1.81-0.86-2.18-1.6
			c-0.37-0.74-0.56-1.64-0.56-2.7c0-1.39,0.46-2.54,1.37-3.44c0.91-0.9,2.08-1.35,3.49-1.35c2.16,0,3.64,0.72,4.43,2.15
			c0.79,1.43,1.18,3.34,1.18,5.72c0,3.19-0.77,6.57-2.31,10.14c-1.54,3.56-3.66,7.17-6.36,10.82c-2.7,3.65-5.84,7.31-9.41,11
			c-3.57,3.69-7.37,7.25-11.4,10.69c-4.03,3.44-8.23,6.72-12.59,9.83c-4.36,3.11-8.62,5.94-12.78,8.48
			c-4.9,2.95-9.81,5.9-14.71,8.85c-4.9,2.95-10.01,5.98-15.33,9.09l-0.62-0.61c2.91-4.18,5.42-8.67,7.54-13.46
			c2.12-4.79,4.09-9.73,5.92-14.81c1.83-5.08,3.68-10.16,5.55-15.24c1.87-5.08,4.01-9.97,6.42-14.69c2.41-4.71,5.28-9.11,8.6-13.21
			c3.32-4.1,7.35-7.66,12.09-10.69l-0.25-0.25c-3.49,1.8-7.27,3.18-11.34,4.12c-4.07,0.94-8.23,1.99-12.46,3.13
			c-2.74,0.74-5.71,1.72-8.91,2.95c-3.2,1.23-6.17,2.81-8.91,4.73c-2.74,1.93-5.05,4.18-6.92,6.76c-1.87,2.58-2.8,5.59-2.8,9.03
			c0,2.87,0.91,5.08,2.74,6.64c1.83,1.56,3.99,2.34,6.48,2.34c1.5,0,2.97-0.31,4.43-0.92c1.45-0.62,2.74-1.43,3.86-2.46
			c1.12-1.02,2.01-2.27,2.68-3.75c0.66-1.48,1-3.07,1-4.79c0-0.82,0-1.55,0-2.21c0-0.65-0.08-1.35-0.25-2.09h1.37
			c0.08,0.66,0.17,1.35,0.25,2.09c0.08,0.74,0.12,1.56,0.12,2.46c0,1.72-0.35,3.36-1.06,4.92c-0.71,1.56-1.68,2.95-2.93,4.18
			c-1.25,1.23-2.72,2.21-4.42,2.95c-1.7,0.74-3.51,1.11-5.42,1.11c-3.49,0-6.42-1-8.79-3.01c-2.37-2.01-3.55-4.77-3.55-8.3
			c0-3.85,1.02-7.11,3.05-9.77c2.04-2.66,4.55-4.92,7.54-6.76s6.19-3.34,9.6-4.49c3.41-1.15,6.48-2.09,9.22-2.83
			c2.16-0.65,4.67-1.29,7.54-1.9c2.87-0.61,5.75-1.33,8.66-2.15c2.91-0.82,5.75-1.82,8.54-3.01c2.78-1.19,5.21-2.68,7.29-4.49
			L259.75,294.65z"/>
		
			<linearGradient id="SVGID_00000104693129706479368210000010559103509468628907_" gradientUnits="userSpaceOnUse" x1="275.881" y1="385.4036" x2="302.6191" y2="339.0919">
			<stop  offset="0" style="stop-color:#F1DD54"/>
			<stop  offset="0.2156" style="stop-color:#CB9418"/>
			<stop  offset="0.6698" style="stop-color:#F6E95C"/>
			<stop  offset="1" style="stop-color:#A76B18"/>
		</linearGradient>
		<path style="fill:url(#SVGID_00000104693129706479368210000010559103509468628907_);" d="M319.33,349.71
			c-1.25,2.05-2.8,4.3-4.67,6.76c-1.87,2.46-3.99,4.9-6.36,7.31c-2.37,2.42-4.9,4.75-7.6,7.01c-2.7,2.25-5.51,4.26-8.41,6.02
			c-2.91,1.76-5.84,3.16-8.79,4.18c-2.95,1.02-5.84,1.54-8.66,1.54c-3.49,0-6.19-0.88-8.1-2.64c-1.91-1.76-2.87-4.28-2.87-7.56
			c0-3.61,1.1-7.39,3.3-11.37c2.2-3.97,5.01-7.64,8.41-11c3.41-3.36,7.15-6.15,11.22-8.36c4.07-2.21,7.98-3.32,11.71-3.32
			c2.08,0,3.7,0.43,4.86,1.29c1.16,0.86,1.75,2.11,1.75,3.75c0,1.97-1.08,3.87-3.24,5.71c-2.16,1.84-4.8,3.52-7.91,5.04
			c-3.12,1.52-6.46,2.87-10.03,4.06c-3.57,1.19-6.73,2.07-9.47,2.64c-0.92,1.64-1.66,3.48-2.24,5.53c-0.58,2.05-0.87,4.1-0.87,6.15
			c0,0.98,0.1,1.95,0.31,2.89c0.21,0.94,0.54,1.8,1,2.58c0.46,0.78,1.08,1.41,1.87,1.9c0.79,0.49,1.77,0.74,2.93,0.74
			c2.74,0,5.96-0.88,9.66-2.64c3.7-1.76,7.46-4.12,11.28-7.07c3.82-2.95,7.48-6.31,10.97-10.08c3.49-3.77,6.48-7.66,8.97-11.68
			L319.33,349.71z M299.14,343.19c0-1.15-0.31-2.01-0.93-2.58c-0.62-0.57-1.39-0.86-2.31-0.86c-1.75,0-3.64,0.68-5.67,2.03
			c-2.04,1.35-4.05,3.03-6.04,5.04c-1.99,2.01-3.8,4.16-5.42,6.45c-1.62,2.3-2.85,4.34-3.68,6.15c1.83-0.33,4.11-0.96,6.86-1.91
			c2.74-0.94,5.38-2.11,7.91-3.5c2.53-1.39,4.71-3.01,6.54-4.85C298.22,347.31,299.14,345.32,299.14,343.19z"/>
		
			<linearGradient id="SVGID_00000077300899267512279430000002856130625190609853_" gradientUnits="userSpaceOnUse" x1="313.3148" y1="391.5217" x2="344.9656" y2="336.7008">
			<stop  offset="0" style="stop-color:#F1DD54"/>
			<stop  offset="0.2156" style="stop-color:#CB9418"/>
			<stop  offset="0.6698" style="stop-color:#F6E95C"/>
			<stop  offset="1" style="stop-color:#A76B18"/>
		</linearGradient>
		<path style="fill:url(#SVGID_00000077300899267512279430000002856130625190609853_);" d="M330.92,339.26L315.09,362l0.25,0.24
			c1.16-1.39,2.64-3.01,4.42-4.85c1.79-1.84,3.74-3.73,5.86-5.65c2.12-1.92,4.34-3.83,6.67-5.71c2.32-1.88,4.61-3.56,6.85-5.04
			c0.41-0.82,0.87-1.48,1.37-1.97c0.5-0.49,1.5-0.74,2.99-0.74c0.91,0,1.72,0.02,2.43,0.06c0.71,0.04,1.43,0.1,2.18,0.18
			c-1.41,1.39-2.78,3.09-4.11,5.1c-1.33,2.01-1.99,4.2-1.99,6.58c0,1.89,0.48,3.36,1.43,4.42c0.95,1.07,2.14,1.6,3.55,1.6
			c1.25,0,2.47-0.25,3.68-0.74c1.2-0.49,2.35-1.11,3.43-1.84c1.08-0.74,2.12-1.52,3.12-2.34c1-0.82,1.87-1.56,2.62-2.21l0.75,0.49
			c-0.83,0.82-1.79,1.7-2.87,2.64c-1.08,0.94-2.24,1.82-3.49,2.64c-1.25,0.82-2.58,1.5-3.99,2.03c-1.41,0.53-2.87,0.8-4.36,0.8
			c-2.66,0-4.8-0.8-6.42-2.4c-1.62-1.6-2.43-3.83-2.43-6.7c0-1.97,0.46-3.73,1.37-5.28l-0.25-0.25c-3.41,2.29-7.15,5.31-11.22,9.03
			c-4.07,3.73-8.39,8.13-12.96,13.21c-1.66,1.8-3.39,4.18-5.17,7.13c-1.79,2.95-3.34,5.98-4.67,9.09h-8.1
			c4.49-7.05,8.97-14.05,13.46-21.02c4.49-6.96,9.1-14.05,13.84-21.26H330.92z"/>
		
			<linearGradient id="SVGID_00000057845825549920724560000010531049073668008376_" gradientUnits="userSpaceOnUse" x1="370.3438" y1="400.4846" x2="410.5289" y2="330.882">
			<stop  offset="0" style="stop-color:#F1DD54"/>
			<stop  offset="0.2156" style="stop-color:#CB9418"/>
			<stop  offset="0.6698" style="stop-color:#F6E95C"/>
			<stop  offset="1" style="stop-color:#A76B18"/>
		</linearGradient>
		<path style="fill:url(#SVGID_00000057845825549920724560000010531049073668008376_);" d="M337.53,381.54
			c1.83-3.03,3.93-6.35,6.3-9.96c2.37-3.6,4.78-7.27,7.23-11c2.45-3.73,4.86-7.41,7.23-11.06c2.37-3.64,4.51-7.07,6.42-10.26h7.6
			l-16.45,22.86l0.25,0.24c1.58-1.88,3.49-4.2,5.73-6.94c2.24-2.74,4.71-5.39,7.42-7.93c2.7-2.54,5.59-4.71,8.66-6.51
			c3.07-1.8,6.23-2.7,9.47-2.7c1.99,0,3.64,0.51,4.92,1.54c1.29,1.02,1.93,2.52,1.93,4.49c0,1.15-0.42,2.54-1.25,4.18
			c-0.83,1.64-1.81,3.3-2.93,4.98c-1.12,1.68-2.27,3.3-3.43,4.85c-1.16,1.56-2.08,2.83-2.74,3.81l0.25,0.24
			c1.75-2.46,3.84-5.08,6.3-7.87c2.45-2.78,5.07-5.39,7.85-7.8c2.78-2.42,5.65-4.43,8.6-6.02c2.95-1.6,5.8-2.4,8.54-2.4
			c2.41,0,4.22,0.57,5.42,1.72c1.2,1.15,1.81,2.75,1.81,4.79c0,1.39-0.48,3.03-1.43,4.92c-0.96,1.89-2.16,3.87-3.61,5.96
			c-1.45,2.09-3.01,4.2-4.67,6.33c-1.66,2.13-3.22,4.18-4.67,6.14c-1.46,1.97-2.66,3.79-3.61,5.47c-0.96,1.68-1.43,3.09-1.43,4.24
			c0,0.98,0.31,1.76,0.94,2.34c0.62,0.57,1.39,0.86,2.31,0.86c1.99,0,4.34-0.78,7.04-2.34c2.7-1.55,5.61-3.73,8.73-6.51
			c3.12-2.78,6.38-6.12,9.79-10.02c3.41-3.89,6.86-8.17,10.34-12.84l1,0.49c-3.41,4.59-6.81,8.87-10.22,12.84
			c-3.41,3.97-6.71,7.44-9.91,10.38c-3.2,2.95-6.27,5.27-9.22,6.94c-2.95,1.68-5.67,2.52-8.16,2.52c-2.58,0-4.49-0.72-5.73-2.15
			s-1.87-3.21-1.87-5.35c0-1.56,0.48-3.3,1.43-5.22c0.95-1.92,2.16-3.91,3.61-5.96c1.45-2.05,3.01-4.1,4.67-6.15
			c1.66-2.05,3.22-4.01,4.67-5.9c1.45-1.88,2.66-3.6,3.61-5.16c0.95-1.56,1.43-2.83,1.43-3.81c0-1.15-0.31-1.95-0.94-2.4
			c-0.62-0.45-1.39-0.68-2.31-0.68c-1.66,0-3.61,0.55-5.86,1.66s-4.59,2.66-7.04,4.67c-2.45,2.01-4.97,4.34-7.54,7.01
			c-2.58,2.66-5.09,5.53-7.54,8.6c-2.45,3.07-4.76,6.31-6.92,9.71c-2.16,3.4-4.03,6.78-5.61,10.14h-7.98
			c2.32-4.1,4.84-8.19,7.54-12.29c2.7-4.1,5.21-7.88,7.54-11.37c2.33-3.48,4.28-6.51,5.86-9.09c1.58-2.58,2.37-4.49,2.37-5.71
			c0-2.21-1.16-3.32-3.49-3.32c-2.08,0-4.41,0.76-6.98,2.27c-2.58,1.52-5.19,3.48-7.85,5.9c-2.66,2.42-5.28,5.16-7.85,8.23
			c-2.58,3.07-5.01,6.17-7.29,9.28c-2.29,3.11-4.3,6.08-6.04,8.91c-1.75,2.83-3.12,5.22-4.11,7.19H337.53z"/>
		
			<linearGradient id="SVGID_00000006697207257851774870000006677913110687304861_" gradientUnits="userSpaceOnUse" x1="445.5986" y1="389.5309" x2="477.024" y2="335.1005">
			<stop  offset="0" style="stop-color:#F1DD54"/>
			<stop  offset="0.2156" style="stop-color:#CB9418"/>
			<stop  offset="0.6698" style="stop-color:#F6E95C"/>
			<stop  offset="1" style="stop-color:#A76B18"/>
		</linearGradient>
		<path style="fill:url(#SVGID_00000006697207257851774870000006677913110687304861_);" d="M476.13,339.26h8.1
			c-3.08,4.26-6.03,8.4-8.85,12.41c-2.83,4.02-5.34,7.72-7.54,11.12c-2.2,3.4-3.97,6.39-5.3,8.97c-1.33,2.58-1.99,4.61-1.99,6.08
			c0,2.13,1.12,3.19,3.37,3.19c1.74,0,3.97-0.84,6.67-2.52c2.7-1.68,5.63-3.99,8.79-6.95c3.16-2.95,6.4-6.39,9.72-10.32
			c3.32-3.93,6.48-8.11,9.47-12.54l0.75,0.25c-2.24,3.36-4.88,6.99-7.91,10.88c-3.04,3.89-6.21,7.52-9.54,10.88
			c-3.32,3.36-6.65,6.17-9.97,8.42c-3.32,2.25-6.44,3.38-9.35,3.38c-2.41,0-4.17-0.59-5.3-1.78s-1.68-2.6-1.68-4.24
			c0-1.15,0.19-2.27,0.56-3.38s0.77-2.23,1.18-3.38l-0.25-0.12c-1.08,1.15-2.43,2.48-4.05,3.99c-1.62,1.52-3.37,2.93-5.24,4.24
			c-1.87,1.31-3.8,2.42-5.8,3.32c-1.99,0.9-3.91,1.35-5.73,1.35c-3.08,0-5.24-0.94-6.48-2.83c-1.25-1.88-1.87-4.01-1.87-6.39
			c0-3.36,1.08-7.07,3.24-11.12c2.16-4.05,4.9-7.87,8.23-11.43c3.32-3.56,6.94-6.53,10.84-8.91c3.9-2.38,7.6-3.56,11.09-3.56
			c1.66,0,3.12,0.23,4.36,0.68c1.25,0.45,2.28,1.07,3.12,1.84c0.83,0.78,1.48,1.66,1.93,2.64c0.46,0.98,0.81,2.01,1.06,3.07h0.25
			L476.13,339.26z M435.37,373.67c0,1.89,0.39,3.34,1.18,4.36c0.79,1.03,1.89,1.54,3.3,1.54c1.41,0,3.07-0.51,4.99-1.54
			c1.91-1.02,3.9-2.4,5.98-4.12c2.07-1.72,4.13-3.71,6.17-5.96c2.04-2.25,3.84-4.65,5.42-7.19c1.58-2.54,2.87-5.12,3.86-7.74
			c1-2.62,1.5-5.12,1.5-7.5c0-1.88-0.54-3.32-1.62-4.3c-1.08-0.98-2.41-1.47-3.99-1.47c-2.49,0-5.28,1.06-8.35,3.19
			c-3.08,2.13-5.98,4.85-8.73,8.17s-5.05,6.99-6.92,11C436.3,366.14,435.37,369.99,435.37,373.67z"/>
		
			<linearGradient id="SVGID_00000109020491381635612970000005767502641194222209_" gradientUnits="userSpaceOnUse" x1="498.0366" y1="394.5484" x2="531.8636" y2="335.9583">
			<stop  offset="0" style="stop-color:#F1DD54"/>
			<stop  offset="0.2156" style="stop-color:#CB9418"/>
			<stop  offset="0.6698" style="stop-color:#F6E95C"/>
			<stop  offset="1" style="stop-color:#A76B18"/>
		</linearGradient>
		<path style="fill:url(#SVGID_00000109020491381635612970000005767502641194222209_);" d="M510.65,339.26l-16.45,22.49l0.25,0.25
			c1.75-2.05,3.78-4.44,6.11-7.19c2.33-2.74,4.82-5.35,7.48-7.81c2.66-2.46,5.42-4.53,8.29-6.21c2.87-1.68,5.71-2.52,8.54-2.52
			c2.49,0,4.43,0.68,5.8,2.03c1.37,1.35,2.06,3.09,2.06,5.22c0,1.31-0.48,2.87-1.43,4.67c-0.96,1.8-2.14,3.73-3.55,5.78
			c-1.41,2.05-2.95,4.14-4.61,6.27c-1.66,2.13-3.2,4.16-4.61,6.08c-1.41,1.93-2.6,3.69-3.55,5.29c-0.96,1.6-1.43,2.93-1.43,3.99
			c0,2.3,1.16,3.44,3.49,3.44c2.66,0,5.48-0.88,8.48-2.64c2.99-1.76,6.56-4.73,10.72-8.91c1.66-1.64,3.34-3.44,5.05-5.41
			c1.7-1.97,3.34-3.91,4.92-5.84c1.58-1.92,3.01-3.75,4.3-5.47c1.29-1.72,2.31-3.15,3.05-4.3l0.87,0.49
			c-1.66,2.46-3.8,5.39-6.42,8.79c-2.62,3.4-5.46,6.74-8.54,10.02c-1.83,1.97-3.7,3.85-5.61,5.65c-1.91,1.8-3.82,3.38-5.73,4.73
			c-1.91,1.35-3.8,2.42-5.67,3.2c-1.87,0.78-3.72,1.17-5.55,1.17c-2.41,0-4.41-0.66-5.98-1.97c-1.58-1.31-2.37-3.11-2.37-5.41
			c0-2.46,1-5.14,2.99-8.05c1.99-2.91,4.19-5.84,6.6-8.79c2.41-2.95,4.61-5.78,6.61-8.48c1.99-2.7,2.99-5.08,2.99-7.13
			c0-0.98-0.33-1.72-1-2.21c-0.67-0.49-1.54-0.74-2.62-0.74c-2.08,0-4.41,0.76-6.98,2.27c-2.58,1.52-5.21,3.52-7.91,6.02
			c-2.7,2.5-5.4,5.28-8.1,8.36c-2.7,3.07-5.21,6.15-7.54,9.22c-2.33,3.07-4.41,6.02-6.23,8.85c-1.83,2.83-3.2,5.18-4.11,7.07h-7.73
			c2.16-3.61,4.47-7.27,6.92-11c2.45-3.73,4.88-7.41,7.29-11.06c2.41-3.64,4.71-7.17,6.92-10.57c2.2-3.4,4.18-6.49,5.92-9.28
			L510.65,339.26z"/>
		
			<linearGradient id="SVGID_00000103985596671795551700000006107950865991074697_" gradientUnits="userSpaceOnUse" x1="546.2101" y1="384.9475" x2="583.3055" y2="320.6966">
			<stop  offset="0" style="stop-color:#F1DD54"/>
			<stop  offset="0.2156" style="stop-color:#CB9418"/>
			<stop  offset="0.6698" style="stop-color:#F6E95C"/>
			<stop  offset="1" style="stop-color:#A76B18"/>
		</linearGradient>
		<path style="fill:url(#SVGID_00000103985596671795551700000006107950865991074697_);" d="M567.49,339.26
			c-4.57,6.47-8.43,11.92-11.59,16.35c-3.16,4.42-5.71,8.11-7.67,11.06c-1.95,2.95-3.37,5.28-4.24,7.01
			c-0.87,1.72-1.31,3.11-1.31,4.18c0,2.13,0.87,3.19,2.62,3.19c1.66,0,3.59-0.59,5.8-1.78c2.2-1.19,4.51-2.72,6.92-4.61
			c2.41-1.88,4.82-4.01,7.23-6.39c2.41-2.37,4.67-4.73,6.79-7.07c2.12-2.34,3.99-4.59,5.61-6.76c1.62-2.17,2.8-3.95,3.55-5.35
			l1,0.61c-1,1.64-2.35,3.61-4.05,5.9c-1.7,2.3-3.64,4.65-5.8,7.07c-2.16,2.42-4.45,4.81-6.85,7.19c-2.41,2.38-4.86,4.51-7.35,6.39
			c-2.49,1.89-4.92,3.4-7.29,4.55c-2.37,1.15-4.55,1.72-6.54,1.72c-2.24,0-3.91-0.61-4.99-1.84c-1.08-1.23-1.62-2.58-1.62-4.06
			c0-1.72,0.4-3.54,1.18-5.47c0.79-1.92,2.06-4.28,3.8-7.07c1.75-2.78,4.01-6.16,6.79-10.14c2.78-3.97,6.13-8.87,10.03-14.69H567.49
			z M574.71,316.4c1.16,0,2.12,0.39,2.87,1.17c0.75,0.78,1.12,1.74,1.12,2.89c0,1.15-0.37,2.11-1.12,2.89
			c-0.75,0.78-1.7,1.17-2.87,1.17c-1.16,0-2.12-0.39-2.87-1.17c-0.75-0.78-1.12-1.74-1.12-2.89c0-1.15,0.37-2.11,1.12-2.89
			C572.59,316.79,573.55,316.4,574.71,316.4z"/>
		
			<linearGradient id="SVGID_00000000218747319698910900000007223372029657108914_" gradientUnits="userSpaceOnUse" x1="581.0432" y1="394.5484" x2="614.8702" y2="335.9583">
			<stop  offset="0" style="stop-color:#F1DD54"/>
			<stop  offset="0.2156" style="stop-color:#CB9418"/>
			<stop  offset="0.6698" style="stop-color:#F6E95C"/>
			<stop  offset="1" style="stop-color:#A76B18"/>
		</linearGradient>
		<path style="fill:url(#SVGID_00000000218747319698910900000007223372029657108914_);" d="M593.66,339.26l-16.45,22.49l0.25,0.25
			c1.75-2.05,3.78-4.44,6.11-7.19c2.33-2.74,4.82-5.35,7.48-7.81c2.66-2.46,5.42-4.53,8.29-6.21c2.87-1.68,5.71-2.52,8.54-2.52
			c2.49,0,4.43,0.68,5.8,2.03c1.37,1.35,2.06,3.09,2.06,5.22c0,1.31-0.48,2.87-1.43,4.67c-0.96,1.8-2.14,3.73-3.55,5.78
			c-1.41,2.05-2.95,4.14-4.61,6.27c-1.66,2.13-3.2,4.16-4.61,6.08c-1.41,1.93-2.6,3.69-3.55,5.29c-0.96,1.6-1.43,2.93-1.43,3.99
			c0,2.3,1.16,3.44,3.49,3.44c2.66,0,5.48-0.88,8.48-2.64c2.99-1.76,6.56-4.73,10.72-8.91c1.66-1.64,3.34-3.44,5.05-5.41
			c1.7-1.97,3.34-3.91,4.92-5.84c1.58-1.92,3.01-3.75,4.3-5.47c1.29-1.72,2.31-3.15,3.05-4.3l0.87,0.49
			c-1.66,2.46-3.8,5.39-6.42,8.79c-2.62,3.4-5.46,6.74-8.54,10.02c-1.83,1.97-3.7,3.85-5.61,5.65c-1.91,1.8-3.82,3.38-5.73,4.73
			c-1.91,1.35-3.8,2.42-5.67,3.2c-1.87,0.78-3.72,1.17-5.55,1.17c-2.41,0-4.41-0.66-5.98-1.97c-1.58-1.31-2.37-3.11-2.37-5.41
			c0-2.46,1-5.14,2.99-8.05c1.99-2.91,4.19-5.84,6.6-8.79c2.41-2.95,4.61-5.78,6.61-8.48c1.99-2.7,2.99-5.08,2.99-7.13
			c0-0.98-0.33-1.72-1-2.21c-0.67-0.49-1.54-0.74-2.62-0.74c-2.08,0-4.41,0.76-6.98,2.27c-2.58,1.52-5.21,3.52-7.91,6.02
			c-2.7,2.5-5.4,5.28-8.1,8.36c-2.7,3.07-5.21,6.15-7.54,9.22c-2.33,3.07-4.41,6.02-6.23,8.85c-1.83,2.83-3.2,5.18-4.11,7.07h-7.73
			c2.16-3.61,4.47-7.27,6.92-11c2.45-3.73,4.88-7.41,7.29-11.06c2.41-3.64,4.71-7.17,6.92-10.57c2.2-3.4,4.18-6.49,5.92-9.28
			L593.66,339.26z"/>
		
			<linearGradient id="SVGID_00000178170281757589889690000000203505029190654378_" gradientUnits="userSpaceOnUse" x1="605.6283" y1="426.312" x2="661.6121" y2="329.3451">
			<stop  offset="0" style="stop-color:#F1DD54"/>
			<stop  offset="0.2156" style="stop-color:#CB9418"/>
			<stop  offset="0.6698" style="stop-color:#F6E95C"/>
			<stop  offset="1" style="stop-color:#A76B18"/>
		</linearGradient>
		<path style="fill:url(#SVGID_00000178170281757589889690000000203505029190654378_);" d="M678.78,339.26
			c-4.99,6.64-9.7,13.4-14.15,20.28c-4.45,6.88-9.04,13.72-13.77,20.52c4.15-0.9,8.25-2.37,12.28-4.42c4.03-2.05,7.83-4.5,11.4-7.37
			c3.57-2.87,6.87-6.02,9.91-9.46c3.03-3.44,5.59-6.92,7.66-10.45l0.5,0.74c-3.66,6.14-7.66,11.27-12.03,15.36
			s-8.58,7.37-12.65,9.83c-4.07,2.46-7.73,4.24-10.97,5.35c-3.24,1.11-5.57,1.74-6.98,1.9c-0.42,0.25-1.25,1.31-2.49,3.19
			c-1.25,1.88-2.91,4.18-4.99,6.88c-2.08,2.7-4.55,5.57-7.42,8.6c-2.87,3.03-6.11,5.84-9.72,8.42s-7.62,4.73-12.03,6.45
			c-4.4,1.72-9.14,2.58-14.21,2.58c-2.99,0-5.77-0.33-8.35-0.98c-2.57-0.66-4.8-1.6-6.67-2.83c-1.87-1.23-3.32-2.7-4.36-4.42
			c-1.04-1.72-1.56-3.65-1.56-5.78c0-3.52,1.29-6.45,3.86-8.79c2.58-2.34,5.82-3.5,9.72-3.5c0.83,0,1.52,0.04,2.06,0.12
			c0.54,0.08,1.1,0.2,1.68,0.37v0.98h-1c-3.24,0-5.65,1-7.23,3.01c-1.58,2.01-2.37,4.69-2.37,8.05c0,2.21,0.39,4.1,1.18,5.65
			c0.79,1.56,1.87,2.83,3.24,3.81c1.37,0.98,2.97,1.7,4.8,2.15c1.83,0.45,3.82,0.68,5.98,0.68c3.66,0,7.25-0.84,10.78-2.52
			c3.53-1.68,6.92-3.89,10.16-6.64s6.33-5.84,9.29-9.28c2.95-3.44,5.73-6.9,8.35-10.38c2.62-3.48,5.01-6.84,7.17-10.08
			c2.16-3.24,4.07-6,5.73-8.3l-0.25-0.25c-1.33,1.56-2.81,3.13-4.43,4.73c-1.62,1.6-3.34,3.07-5.17,4.42
			c-1.83,1.35-3.74,2.46-5.73,3.32c-1.99,0.86-4.07,1.29-6.23,1.29c-1.58,0-2.95-0.29-4.11-0.86c-1.16-0.57-2.12-1.33-2.87-2.27
			s-1.29-1.99-1.62-3.14c-0.33-1.15-0.5-2.25-0.5-3.32c0-2.54,0.56-5.16,1.68-7.87c1.12-2.7,2.6-5.35,4.43-7.93
			c1.83-2.58,3.95-5,6.36-7.25c2.41-2.25,4.92-4.24,7.54-5.96c2.62-1.72,5.25-3.09,7.92-4.12c2.66-1.02,5.11-1.54,7.35-1.54
			c3.24,0,5.59,0.8,7.04,2.4c1.45,1.6,2.18,3.46,2.18,5.59h0.37l4.61-7.01H678.78z M655.73,339.75c-2.74,0-5.71,1.13-8.91,3.38
			c-3.2,2.25-6.19,5.06-8.97,8.42c-2.78,3.36-5.09,7.01-6.92,10.94c-1.83,3.93-2.74,7.62-2.74,11.06c0,1.8,0.48,3.26,1.43,4.36
			c0.95,1.11,2.18,1.66,3.68,1.66c1.16,0,2.68-0.47,4.55-1.41c1.87-0.94,3.82-2.25,5.86-3.93c2.04-1.68,4.09-3.64,6.17-5.9
			c2.07-2.25,3.93-4.65,5.55-7.19c1.62-2.54,2.95-5.18,3.99-7.93c1.04-2.74,1.56-5.47,1.56-8.17c0-1.39-0.39-2.62-1.18-3.69
			C658.99,340.29,657.64,339.75,655.73,339.75z"/>
	</g>
	<g>
		
			<linearGradient id="SVGID_00000099641391892606488720000011232200065633576631_" gradientUnits="userSpaceOnUse" x1="290.5877" y1="524.6471" x2="312.9613" y2="485.8948">
			<stop  offset="0" style="stop-color:#F1DD54"/>
			<stop  offset="0.2156" style="stop-color:#CB9418"/>
			<stop  offset="0.6698" style="stop-color:#F6E95C"/>
			<stop  offset="1" style="stop-color:#A76B18"/>
		</linearGradient>
		<path style="fill:url(#SVGID_00000099641391892606488720000011232200065633576631_);" d="M285.93,505.15
			c0-15.2,5.98-23.35,15.87-23.35c9.89,0,15.87,8.18,15.87,23.35c0,15.2-5.98,23.69-15.87,23.69
			C291.91,528.84,285.93,520.35,285.93,505.15z M311.48,505.15c0-13.29-3.92-18.64-9.67-18.64c-5.76,0-9.67,5.35-9.67,18.64
			c0,13.29,3.91,18.98,9.67,18.98C307.56,524.13,311.48,518.44,311.48,505.15z"/>
		
			<linearGradient id="SVGID_00000096031519761920506700000003690686401545068209_" gradientUnits="userSpaceOnUse" x1="330.6617" y1="524.9991" x2="353.8149" y2="484.8966">
			<stop  offset="0" style="stop-color:#F1DD54"/>
			<stop  offset="0.2156" style="stop-color:#CB9418"/>
			<stop  offset="0.6698" style="stop-color:#F6E95C"/>
			<stop  offset="1" style="stop-color:#A76B18"/>
		</linearGradient>
		<path style="fill:url(#SVGID_00000096031519761920506700000003690686401545068209_);" d="M324.83,507.04
			c0-18.24,9-25.25,18.87-25.25c5.32,0,9.17,2.07,11.94,4.79l-3.55,3.66c-1.99-2.19-5.05-3.58-8.14-3.58
			c-7.12,0-13.09,5.17-13.09,20.38c0,11.14,3.95,17.19,11.05,17.19c4.86,0,8.62-3.96,8.62-9.94c0-5.91-3.03-9.63-9.16-9.63
			c-3.21,0-7.24,1.77-10.64,6.42l-0.23-4.62c3.11-3.81,7.75-6.2,11.94-6.2c8.58,0,14.12,4.71,14.12,14.02
			c0,8.68-6.68,14.55-14.63,14.55C332.16,528.84,324.83,521.59,324.83,507.04z"/>
		
			<linearGradient id="SVGID_00000132081878956193272520000011202959768880605089_" gradientUnits="userSpaceOnUse" x1="366.1251" y1="529.9257" x2="391.0711" y2="486.7181">
			<stop  offset="0" style="stop-color:#F1DD54"/>
			<stop  offset="0.2156" style="stop-color:#CB9418"/>
			<stop  offset="0.6698" style="stop-color:#F6E95C"/>
			<stop  offset="1" style="stop-color:#A76B18"/>
		</linearGradient>
		<path style="fill:url(#SVGID_00000132081878956193272520000011202959768880605089_);" d="M362.76,524.52
			c14.88-13.58,23.3-21.75,23.3-29.12c0-5.17-3.07-8.85-9.39-8.85c-4.14,0-7.71,2.4-10.53,5.43l-3.71-3.3
			c4.14-4.17,8.6-6.89,15.02-6.89c9.15,0,14.87,5.29,14.87,13.35c0,8.51-8.53,16.96-20.22,28.21c2.68-0.2,5.76-0.39,8.33-0.39h14.32
			v5.03h-31.99V524.52z"/>
		
			<linearGradient id="SVGID_00000011712875493162484260000014458729090955871647_" gradientUnits="userSpaceOnUse" x1="404.5377" y1="525.7766" x2="427.9347" y2="485.2519">
			<stop  offset="0" style="stop-color:#F1DD54"/>
			<stop  offset="0.2156" style="stop-color:#CB9418"/>
			<stop  offset="0.6698" style="stop-color:#F6E95C"/>
			<stop  offset="1" style="stop-color:#A76B18"/>
		</linearGradient>
		<path style="fill:url(#SVGID_00000011712875493162484260000014458729090955871647_);" d="M400.3,522.44l3.21-3.81
			c2.98,2.83,6.84,5.34,12.64,5.34c6.02,0,10.28-3.22,10.28-8.31c0-5.39-4.05-9-15.8-9v-4.49c10.49,0,14.05-3.7,14.05-8.44
			c0-4.41-3.31-7.18-8.56-7.18c-4.14,0-7.65,1.91-10.56,4.6l-3.44-3.71c3.83-3.25,8.37-5.65,14.23-5.65
			c8.61,0,14.82,4.19,14.82,11.51c0,5.46-3.62,8.95-9,10.77v0.28c5.98,1.29,10.75,5.3,10.75,11.52c0,8.08-7.28,12.95-16.35,12.95
			C408.62,528.84,403.63,525.79,400.3,522.44z"/>
		
			<linearGradient id="SVGID_00000066477274242668826300000008488673009286613381_" gradientUnits="userSpaceOnUse" x1="443.2891" y1="529.9257" x2="468.235" y2="486.7181">
			<stop  offset="0" style="stop-color:#F1DD54"/>
			<stop  offset="0.2156" style="stop-color:#CB9418"/>
			<stop  offset="0.6698" style="stop-color:#F6E95C"/>
			<stop  offset="1" style="stop-color:#A76B18"/>
		</linearGradient>
		<path style="fill:url(#SVGID_00000066477274242668826300000008488673009286613381_);" d="M439.93,524.52
			c14.88-13.58,23.3-21.75,23.3-29.12c0-5.17-3.07-8.85-9.39-8.85c-4.14,0-7.71,2.4-10.53,5.43l-3.71-3.3
			c4.14-4.17,8.6-6.89,15.02-6.89c9.15,0,14.87,5.29,14.87,13.35c0,8.51-8.53,16.96-20.22,28.21c2.68-0.2,5.76-0.39,8.33-0.39h14.32
			v5.03h-31.99V524.52z"/>
		
			<linearGradient id="SVGID_00000126290380313872316300000005179560329959364277_" gradientUnits="userSpaceOnUse" x1="477.952" y1="521.5018" x2="502.9741" y2="478.1622">
			<stop  offset="0" style="stop-color:#F1DD54"/>
			<stop  offset="0.2156" style="stop-color:#CB9418"/>
			<stop  offset="0.6698" style="stop-color:#F6E95C"/>
			<stop  offset="1" style="stop-color:#A76B18"/>
		</linearGradient>
		<path style="fill:url(#SVGID_00000126290380313872316300000005179560329959364277_);" d="M503.48,487.67h-24.65v-5.03h31.91v3.58
			c-11.73,13.73-14.15,24.06-14.98,41.75h-6.58C490.01,510.89,493.73,500.11,503.48,487.67z"/>
		
			<linearGradient id="SVGID_00000016768177730716812290000006342197722075268010_" gradientUnits="userSpaceOnUse" x1="522.0762" y1="524.6471" x2="544.4498" y2="485.8948">
			<stop  offset="0" style="stop-color:#F1DD54"/>
			<stop  offset="0.2156" style="stop-color:#CB9418"/>
			<stop  offset="0.6698" style="stop-color:#F6E95C"/>
			<stop  offset="1" style="stop-color:#A76B18"/>
		</linearGradient>
		<path style="fill:url(#SVGID_00000016768177730716812290000006342197722075268010_);" d="M517.42,505.15
			c0-15.2,5.98-23.35,15.87-23.35c9.89,0,15.87,8.18,15.87,23.35c0,15.2-5.98,23.69-15.87,23.69
			C523.4,528.84,517.42,520.35,517.42,505.15z M542.96,505.15c0-13.29-3.92-18.64-9.67-18.64c-5.76,0-9.67,5.35-9.67,18.64
			c0,13.29,3.91,18.98,9.67,18.98C539.05,524.13,542.96,518.44,542.96,505.15z"/>
		
			<linearGradient id="SVGID_00000072964453868943568250000005791810311598456243_" gradientUnits="userSpaceOnUse" x1="558.864" y1="525.7766" x2="582.261" y2="485.2518">
			<stop  offset="0" style="stop-color:#F1DD54"/>
			<stop  offset="0.2156" style="stop-color:#CB9418"/>
			<stop  offset="0.6698" style="stop-color:#F6E95C"/>
			<stop  offset="1" style="stop-color:#A76B18"/>
		</linearGradient>
		<path style="fill:url(#SVGID_00000072964453868943568250000005791810311598456243_);" d="M554.62,522.44l3.21-3.81
			c2.98,2.83,6.84,5.34,12.64,5.34c6.02,0,10.28-3.22,10.28-8.31c0-5.39-4.05-9-15.8-9v-4.49c10.49,0,14.05-3.7,14.05-8.44
			c0-4.41-3.31-7.18-8.56-7.18c-4.14,0-7.65,1.91-10.56,4.6l-3.44-3.71c3.83-3.25,8.37-5.65,14.23-5.65
			c8.61,0,14.81,4.19,14.81,11.51c0,5.46-3.62,8.95-9,10.77v0.28c5.98,1.29,10.75,5.3,10.75,11.52c0,8.08-7.28,12.95-16.35,12.95
			C562.95,528.84,557.96,525.79,554.62,522.44z"/>
		
			<linearGradient id="SVGID_00000026125761543185730520000010055179485032051605_" gradientUnits="userSpaceOnUse" x1="597.6136" y1="529.9257" x2="622.5596" y2="486.7181">
			<stop  offset="0" style="stop-color:#F1DD54"/>
			<stop  offset="0.2156" style="stop-color:#CB9418"/>
			<stop  offset="0.6698" style="stop-color:#F6E95C"/>
			<stop  offset="1" style="stop-color:#A76B18"/>
		</linearGradient>
		<path style="fill:url(#SVGID_00000026125761543185730520000010055179485032051605_);" d="M594.25,524.52
			c14.88-13.58,23.3-21.75,23.3-29.12c0-5.17-3.07-8.85-9.39-8.85c-4.14,0-7.71,2.4-10.53,5.43l-3.71-3.3
			c4.14-4.17,8.6-6.89,15.02-6.89c9.15,0,14.87,5.29,14.87,13.35c0,8.51-8.53,16.96-20.22,28.21c2.68-0.2,5.76-0.39,8.33-0.39h14.32
			v5.03h-31.99V524.52z"/>
		
			<linearGradient id="SVGID_00000003099595421311576920000017560147920481721740_" gradientUnits="userSpaceOnUse" x1="638.1066" y1="529.2879" x2="662.1703" y2="487.6084">
			<stop  offset="0" style="stop-color:#F1DD54"/>
			<stop  offset="0.2156" style="stop-color:#CB9418"/>
			<stop  offset="0.6698" style="stop-color:#F6E95C"/>
			<stop  offset="1" style="stop-color:#A76B18"/>
		</linearGradient>
		<path style="fill:url(#SVGID_00000003099595421311576920000017560147920481721740_);" d="M635.85,523.12h11.34v-33.38h-9.02v-3.76
			c4.51-0.73,7.79-1.82,10.53-3.33h4.88v40.47h10.22v4.87h-27.95V523.12z"/>
	</g>
	<g>
		
			<linearGradient id="SVGID_00000177465094153875797470000009378942014758031020_" gradientUnits="userSpaceOnUse" x1="234.2105" y1="509.0158" x2="243.4578" y2="509.0158">
			<stop  offset="0" style="stop-color:#F1DD54"/>
			<stop  offset="0.2156" style="stop-color:#CB9418"/>
			<stop  offset="0.6698" style="stop-color:#F6E95C"/>
			<stop  offset="1" style="stop-color:#A76B18"/>
		</linearGradient>
		<path style="fill:url(#SVGID_00000177465094153875797470000009378942014758031020_);" d="M234.21,496.25
			c0-2.69,2.08-4.52,4.62-4.52c2.54,0,4.62,1.83,4.62,4.52c0,2.6-2.08,4.43-4.62,4.43C236.29,500.67,234.21,498.84,234.21,496.25z
			 M234.21,521.88c0-2.69,2.08-4.52,4.62-4.52c2.54,0,4.62,1.83,4.62,4.52c0,2.59-2.08,4.43-4.62,4.43
			C236.29,526.3,234.21,524.47,234.21,521.88z"/>
	</g>
	
		<linearGradient id="SVGID_00000058556592269473709940000001047631606894933660_" gradientUnits="userSpaceOnUse" x1="211.4314" y1="528.3642" x2="159.8353" y2="476.768">
		<stop  offset="0" style="stop-color:#F1DD54"/>
		<stop  offset="0.2156" style="stop-color:#CB9418"/>
		<stop  offset="0.6698" style="stop-color:#F6E95C"/>
		<stop  offset="1" style="stop-color:#A76B18"/>
	</linearGradient>
	<path style="fill:url(#SVGID_00000058556592269473709940000001047631606894933660_);" d="M204.84,528.08
		c-3.05-0.05-5.97-0.71-8.8-1.77c-3.6-1.35-6.87-3.31-10.03-5.48c-1.67-1.15-3.3-2.33-4.8-3.68c-1.17-1.05-2.34-2.09-3.44-3.21
		c-2.23-2.26-4.44-4.56-6.62-6.87c-1.46-1.55-2.67-3.3-3.86-5.06c-1.76-2.6-3.39-5.27-4.64-8.16c-1.19-2.75-2.04-5.6-2.31-8.6
		c-0.28-3.12,0.07-6.16,1.34-9.04c0.62-1.4,1.38-2.73,2.51-3.78c0.77-0.71,1.72-1.09,2.7-1.38c1.58-0.47,3.19-0.71,4.83-0.59
		c0.4,0.03,0.81,0.12,1.19,0.24c0.16,0.05,0.33,0.22,0.39,0.38c0.32,0.85,0.57,1.73,0.92,2.57c1.09,2.66,2.23,5.3,3.33,7.95
		c0.64,1.55,1.23,3.13,1.89,4.68c0.31,0.73,0.17,1.35-0.28,1.92c-0.79,1-1.59,2-2.43,2.96c-0.73,0.83-1.53,1.6-2.3,2.39
		c-0.26,0.26-0.25,0.56-0.11,0.83c0.36,0.73,0.69,1.48,1.14,2.16c1.87,2.85,4.09,5.44,6.28,8.05c1.22,1.45,2.72,2.59,4.16,3.8
		c1.98,1.67,3.99,3.3,6.19,4.67c0.56,0.35,1.17,0.61,1.78,0.89c0.33,0.15,0.61,0.06,0.89-0.22c1.55-1.54,3.1-3.07,4.85-4.38
		c1.15-0.86,1.48-0.91,3.01-0.28c3.44,1.43,6.88,2.89,10.32,4.32c1.25,0.52,2.5,1.03,3.78,1.44c0.57,0.18,0.85,0.46,0.89,1
		c0.06,0.73,0.13,1.46,0.1,2.18c-0.07,1.36-0.35,2.67-0.78,3.97c-0.55,1.66-1.68,2.8-3.15,3.69c-1.9,1.15-3.94,1.88-6.14,2.16
		C206.7,527.94,205.76,527.99,204.84,528.08z"/>
	
		<linearGradient id="SVGID_00000008139075195983689980000006051635138426283174_" gradientUnits="userSpaceOnUse" x1="739.29" y1="222.2946" x2="666.4316" y2="180.2298">
		<stop  offset="0.0647" style="stop-color:#FAEE73"/>
		<stop  offset="0.4098" style="stop-color:#927415"/>
		<stop  offset="0.6455" style="stop-color:#624D16"/>
	</linearGradient>
	<polygon style="fill:url(#SVGID_00000008139075195983689980000006051635138426283174_);" points="724.3,80 790.85,84.16 
		736.78,204.78 689.36,308.78 616.98,319.59 	"/>
	<path class="st47" d="M724.67,171.85l25.29-59.9c1.51-3.58,0.75-7.31-1.7-8.35h0c-2.45-1.03-5.65,1.03-7.16,4.6l-75.54,178.95
		c-1.51,3.58-0.75,7.31,1.7,8.35c2.45,1.03,5.65-1.03,7.16-4.6l41.46-98.22c0.37,0.61,0.82,1.19,1.38,1.73
		c4.53,4.37,0.44,22.2,0.44,22.2l-12.89,36.72c0,0-32.29,21.51-15.71,34c16.58,12.49,33.25-6.51,35.45-9.13
		c2.2-2.62,25.34-58.01,26.17-72.04C751.36,195.37,733.12,178.88,724.67,171.85z"/>
</g>
</svg>
