<?xml version="1.0" encoding="UTF-8" standalone="no"?>
<!DOCTYPE svg PUBLIC "-//W3C//DTD SVG 1.1//EN" "http://www.w3.org/Graphics/SVG/1.1/DTD/svg11.dtd">
<svg width="100%" height="100%" viewBox="0 0 384 512" version="1.1" xmlns="http://www.w3.org/2000/svg" xmlns:xlink="http://www.w3.org/1999/xlink" xml:space="preserve" xmlns:serif="http://www.serif.com/" style="fill-rule:evenodd;clip-rule:evenodd;stroke-linejoin:round;stroke-miterlimit:2;">
    <path d="M349.1,427.8C335.886,432.2 322.672,436.6 309.42,440.886C297.742,444.662 286.036,448.354 274.252,451.787C265.073,454.462 255.845,456.977 246.535,459.158C236.381,461.538 226.123,463.518 215.764,464.76C207.259,465.78 198.689,466.274 190.123,466.197C162.54,465.952 135.517,459.314 109.185,451.623C97.592,448.237 86.072,444.601 74.58,440.886C61.328,436.601 48.114,432.201 34.9,427.8L0,32L384,32L349.1,427.8ZM92.8,357.7C88.8,307.162 89.415,307.11 84.3,257.8L71.5,112.2L312.5,112.2L299.7,257.8L297.2,281.9L291.2,357.7L192,385L92.8,357.7ZM259.6,159.9L255.5,209.3L249.5,281.9L246,320L192,334.5L138,320L134.5,281.9L128.5,209.3L124.4,159.9L259.6,159.9Z" style="fill:rgb(255,51,51);"/>
</svg>
