<?xml version="1.0" encoding="UTF-8"?>
<svg xmlns="http://www.w3.org/2000/svg" viewBox="0 0 184.25 184.25" aria-hidden="true" focusable="false" role="img" class="logo" aria-label="Logo van Brandschone Online Techniek" width="50" height="50">
  <defs>
    <style>
      .bg { fill: #f1113b; }
      .fg { fill: #fff; }
    </style>
  </defs>

  <!-- Achtergrond -->
  <rect class="bg" width="184.25" height="184.25" rx="17.01" ry="17.01"/>

  <!-- Voorgrond / pad -->
  <path class="fg" d="M168.77,111.73c1.61,0,2.42,2.15,2.42,6.44
    c0,2.33-1,5.16-2.99,8.47c-1.99,3.31-4.58,6.35-7.76,9.1
    c-3.18,2.75-6.71,5.02-10.6,6.79c-3.89,1.77-8,2.66-12.31,2.66
    s-7.69-1.38-10.1-4.13c-2.42-2.75-3.63-5.83-3.63-9.24
    s.57-7.26,1.71-11.55c1.14-4.29,2.37-8.77,3.7-13.44
    c3.61-12.41,5.46-21.14,5.55-26.18c0-2.15-.28-3.8-.85-4.97
    c-.57-1.17-1.66-1.75-3.27-1.75c-2.85,0-5.88,1.68-9.11,5.04
    c-3.23,3.36-6.26,7.65-9.11,12.88c-6.55,11.95-10.01,23.61-10.39,35
    c.19,1.31.38,2.61.57,3.92c.19,1.31.29,2.71.29,4.2
    c0,2.99-1.5,5.72-4.48,8.19c-2.99,2.47-6.33,3.71-10.03,3.71
    c-2.18,0-3.8-1.05-4.84-3.15c-1.05-2.1-1.57-4.69-1.57-7.77
    s.71-7.28,2.14-12.6c1.42-5.32,2.99-10.97,4.7-16.94
    c4.55-15.77,6.88-27.53,6.97-35.28c0-3.92-.5-7-1.5-9.24
    c-1-2.24-2.92-3.36-5.76-3.36c-5.12,0-10.2,3.59-15.23,10.78
    c-5.03,7.19-9.54,18.34-13.52,33.46c-1.05,3.92-1.85,7.33-2.42,10.22
    l-.14,2.66c1.8,8.59,2.7,14.19,2.7,16.8c0,5.41-1.95,9.05-5.83,10.92
    c-1.8.84-3.54,1.63-5.19,2.38c-1.66.75-3.44,1.12-5.34,1.12
    c-4.75,0-7.12-4.46-7.12-13.37s2.51-26.34,7.54-52.29
    c1.8-9.33,2.7-14.56,2.7-15.68c0-7.56-1.95-11.34-5.84-11.34
    c-1.33,0-2.54.37-3.63,1.12c-1.09.75-2.18,1.54-3.27,2.38
    c-1.09.84-2.21,1.63-3.34,2.38c-1.14.75-2.44,1.12-3.91,1.12
    s-2.21-1.26-2.21-3.78c0-5.13,2.42-9.33,7.26-12.6
    c4.65-3.36,10.29-5.04,16.94-5.04c8.54,0,13.57,3.92,15.09,11.76
    c.38,2.33.66,4.81.85,7.42c7.02-12.97,15.89-19.46,26.61-19.46
    c11.67,0,18.36,5.51,20.07,16.52c.57,3.17.81,6.58.71,10.22v1.12
    c6.17-8.4,13.47-12.6,21.92-12.6c11.96,0,17.93,7.09,17.93,21.28
    c0,6.16-.97,13.37-2.92,21.63c-1.95,8.26-3.37,14.19-4.27,17.78
    c-.9,3.59-1.35,6.37-1.35,8.33c0,3.55,1.26,5.32,3.77,5.32
    s8.51-4.85,18-14.56c1.71-1.87,2.94-2.8,3.7-2.8Z"/>
</svg>