<?xml version="1.0" encoding="UTF-8" standalone="no"?>
<!DOCTYPE svg PUBLIC "-//W3C//DTD SVG 1.1//EN" "http://www.w3.org/Graphics/SVG/1.1/DTD/svg11.dtd">
<svg width="100%" height="100%" viewBox="0 0 300 46" version="1.1" xmlns="http://www.w3.org/2000/svg" xmlns:xlink="http://www.w3.org/1999/xlink" xml:space="preserve" xmlns:serif="http://www.serif.com/" style="fill-rule:evenodd;clip-rule:evenodd;stroke-linejoin:round;stroke-miterlimit:2;">
    <g>
        <path d="M23.7,43.1C21.7,44.9 18.8,45.9 15,45.9L12.4,45.9C8.6,45.9 5.7,45 3.7,43.1C1.7,41.3 0.7,38.5 0.7,34.7L0.7,11.1C0.7,7.3 1.7,4.5 3.7,2.7C5.6,0.9 8.5,0 12.3,0L14.9,0C18.7,0 21.6,0.9 23.6,2.8C25.6,4.6 26.6,7.4 26.6,11.2L26.6,34.8C26.7,38.5 25.7,41.3 23.7,43.1ZM21,9.9C21,8.6 20.5,7.4 19.5,6.5C18.5,5.5 17.2,5 15.5,5L11.6,5C9.9,5 8.6,5.5 7.6,6.5C6.6,7.5 6.1,8.6 6.1,9.9L6.1,36C6.1,37.3 6.6,38.5 7.6,39.4C8.6,40.4 9.9,40.9 11.6,40.9L15.5,40.9C17.2,40.9 18.5,40.4 19.5,39.4C20.5,38.4 21,37.3 21,36L21,9.9Z" style="fill-rule:nonzero;"/>
        <path d="M52,45.9L41.7,4.9L41.7,45.9L36.4,45.9L36.4,0L45.7,0L56.1,41L56.1,0L61.4,0L61.4,45.9L52,45.9Z" style="fill-rule:nonzero;"/>
        <path d="M87.2,5L87.2,45.9L81.5,45.9L81.5,5L71,5L71,0L97.5,0L97.5,5L87.2,5Z" style="fill-rule:nonzero;"/>
        <path d="M162.6,45.9L154.1,26.9L147.7,26.9L147.7,45.9L142,45.9L142,0L154.3,0C157.9,0 160.7,0.8 162.7,2.4C164.6,4 165.6,6.6 165.6,10.2L165.6,16.5C165.6,19.1 165.1,21.2 164.1,22.6C163.1,24.1 161.6,25.1 159.7,25.7L168.8,45.8L162.6,45.8L162.6,45.9ZM159.9,9.6C159.9,7.9 159.5,6.7 158.8,6C158,5.3 156.8,4.9 155.2,4.9L147.8,4.9L147.8,21.9L155.2,21.9C156.9,21.9 158.1,21.5 158.8,20.8C159.6,20 159.9,18.8 159.9,17.2L159.9,9.6Z" style="fill-rule:nonzero;"/>
        <path d="M199.4,45.9L196.9,34.3L184.1,34.3L181.5,45.9L175.7,45.9L186.8,0L194.3,0L205.2,45.9L199.4,45.9ZM190.5,4.3L185.2,29.3L195.9,29.3L190.5,4.3Z" style="fill-rule:nonzero;"/>
        <path d="M228.9,45.9L218.6,4.9L218.6,45.9L213.3,45.9L213.3,0L222.6,0L233,41L233,0L238.3,0L238.3,45.9L228.9,45.9Z" style="fill-rule:nonzero;"/>
        <g>
            <path d="M294.7,0L289.3,0C286,0 284,1.8 284,5.6L284,17.4C284,21.1 286.1,23 289.3,23L294.7,23C298,23 300,21.2 300,17.4L300,5.6C300,1.8 297.9,0 294.7,0ZM294.5,17.7L291.9,12.5L290.4,12.5L290.4,17.7L288.6,17.7L288.6,5.1L292.1,5.1C294.3,5.1 295.5,6 295.5,7.9L295.5,9.6C295.5,11 294.8,11.8 293.7,12.2L296.4,17.7L294.5,17.7Z" style="fill:rgb(255,51,51);fill-rule:nonzero;"/>
            <path d="M292.2,6.7L290.5,6.7L290.5,11L292.2,11C293.2,11 293.6,10.6 293.6,9.7L293.6,8C293.6,7 293.2,6.7 292.2,6.7Z" style="fill:rgb(255,51,51);fill-rule:nonzero;"/>
        </g>
        <path d="M130.8,24.7C130.1,23.4 129,22.3 127.6,21.6C128.7,20.8 129.6,19.8 130.3,18.5C130.9,17.2 131.3,15.7 131.3,14L131.3,10.3C131.3,6.5 130.4,3.9 128.5,2.4C126.6,0.9 123.8,0.1 120,0.1L107.7,0.1L107.7,19.5L113.4,19.5L113.4,4.9L120.8,4.9C122.5,4.9 123.7,5.3 124.4,6C125.2,6.7 125.5,7.9 125.5,9.6L125.5,14.6C125.5,16.1 125,17.3 124.1,18.1C123.2,19 122,19.4 120.7,19.4L113.3,19.4L113.3,24.3L121.4,24.3C122.8,24.3 123.9,24.7 124.8,25.6C125.7,26.5 126.1,27.6 126.1,29L126.1,36.1C126.1,37.8 125.7,39 124.9,39.7C124.1,40.5 122.9,40.8 121.2,40.8L113.2,40.8L113.2,24.3L107.5,24.3L107.5,45.9L120.6,45.9C124.5,45.9 127.4,45.1 129.1,43.5C130.8,41.9 131.7,39.3 131.7,35.5L131.7,29.6C131.8,27.6 131.5,26 130.8,24.7Z" style="fill-rule:nonzero;"/>
        <path d="M270.4,2.3C268.3,0.8 265.4,0 261.6,0L248.9,0L248.9,4.9L263.1,4.9C264.5,4.9 265.6,5.3 266.5,6.2C267.4,7.1 267.8,8.2 267.8,9.6L267.8,36.1C267.8,37.8 267.4,39 266.6,39.7C265.8,40.4 264.6,40.8 262.9,40.8L254.5,40.8L254.5,9.8L248.8,9.8L248.8,45.8L262.3,45.8C266.2,45.8 269.1,45 270.8,43.4C272.5,41.8 273.4,39.2 273.4,35.4L273.4,10.2C273.5,6.5 272.5,3.8 270.4,2.3Z" style="fill-rule:nonzero;"/>
    </g>
</svg>
