<?xml version="1.0" encoding="UTF-8" standalone="no"?>
<!DOCTYPE svg PUBLIC "-//W3C//DTD SVG 1.1//EN" "http://www.w3.org/Graphics/SVG/1.1/DTD/svg11.dtd">
<svg width="100%" height="100%" viewBox="0 0 640 512" version="1.1" xmlns="http://www.w3.org/2000/svg" xmlns:xlink="http://www.w3.org/1999/xlink" xml:space="preserve" xmlns:serif="http://www.serif.com/" style="fill-rule:evenodd;clip-rule:evenodd;stroke-linejoin:round;stroke-miterlimit:2;">
    <path d="M320,87.7C143.3,87.7 0,163 0,256C0,349 143.3,424.3 320,424.3C496.7,424.3 640,349 640,256C640,163 496.7,87.7 320,87.7Z" style="fill:rgb(255,51,51);fill-rule:nonzero;"/>
    <g transform="matrix(1,0,0,1,-0.0682278,0.5)">
        <path d="M218.2,242.5C210.3,283 182.4,278.8 148.1,278.8L161.8,208.2C199.8,208.2 225.6,204.1 218.2,242.5M97.4,350.3L134.1,350.3L142.8,305.5C183.9,305.5 209.4,308.5 233,286.4C259.1,262.4 265.9,219.7 247.3,198.3C237.6,187.1 222,181.6 200.8,181.6L130.1,181.6L97.4,350.3ZM283.1,136.7L319.6,136.7L310.9,181.5C342.4,181.5 371.6,179.2 385.7,192.2C400.5,205.8 393.4,223.2 377.4,305.3L340.4,305.3C355.8,225.9 358.7,219.3 353.1,213.3C347.7,207.5 335.4,208.7 305.7,208.7L286.9,305.3L250.4,305.3L283.1,136.7ZM505,242.5C497,283.6 468.3,278.8 434.9,278.8L448.6,208.2C486.8,208.2 512.4,204.1 505,242.5ZM384.2,350.3L421,350.3L429.7,305.5C472.9,305.5 496.8,308 519.9,286.4C546,262.4 552.8,219.7 534.2,198.3C524.5,187.1 508.9,181.6 487.7,181.6L417,181.6L384.2,350.3Z" style="fill:white;fill-rule:nonzero;"/>
    </g>
</svg>
